<svg xmlns="http://www.w3.org/2000/svg" width="24" height="24" viewBox="0 0 24 24" fill="none">
  <mask id="mask0_255_3883" style="mask-type:alpha" maskUnits="userSpaceOnUse" x="0" y="0" width="24" height="24">
    <rect width="24" height="24" fill="#D9D9D9"/>
  </mask>
  <g mask="url(#mask0_255_3883)">
    <path d="M12 16.5116L16.073 12.4538C16.2115 12.3155 16.383 12.2422 16.5875 12.2338C16.792 12.2255 16.9718 12.2988 17.127 12.4538C17.2718 12.5988 17.3442 12.7745 17.3442 12.9808C17.3442 13.1872 17.2718 13.3628 17.127 13.5078L12.6327 18.0021C12.5391 18.0956 12.4403 18.1616 12.3365 18.2001C12.2326 18.2386 12.1205 18.2578 12 18.2578C11.8795 18.2578 11.7673 18.2386 11.6635 18.2001C11.5596 18.1616 11.4609 18.0956 11.3672 18.0021L6.87298 13.5078C6.73465 13.3693 6.66131 13.1978 6.65298 12.9933C6.64465 12.7888 6.71798 12.609 6.87298 12.4538C7.01798 12.309 7.19365 12.2366 7.39998 12.2366C7.60632 12.2366 7.78198 12.309 7.92698 12.4538L12 16.5116ZM12 10.5308L16.073 6.47308C16.2115 6.33475 16.383 6.26141 16.5875 6.25308C16.792 6.24475 16.9718 6.31808 17.127 6.47308C17.2718 6.61808 17.3442 6.79375 17.3442 7.00008C17.3442 7.20641 17.2718 7.38208 17.127 7.52708L12.6327 12.0213C12.5391 12.1148 12.4403 12.1808 12.3365 12.2193C12.2326 12.2578 12.1205 12.2771 12 12.2771C11.8795 12.2771 11.7673 12.2578 11.6635 12.2193C11.5596 12.1808 11.4609 12.1148 11.3672 12.0213L6.87298 7.52708C6.73465 7.38858 6.66131 7.21708 6.65298 7.01258C6.64465 6.80808 6.71798 6.62825 6.87298 6.47308C7.01798 6.32825 7.19365 6.25583 7.39998 6.25583C7.60632 6.25583 7.78198 6.32825 7.92698 6.47308L12 10.5308Z" fill="white"/>
  </g>
</svg>