<svg xmlns="http://www.w3.org/2000/svg" width="20" height="21" viewBox="0 0 20 21" fill="none">
    <mask id="mask0_252_3080" style="mask-type:alpha" maskUnits="userSpaceOnUse" x="0" y="0" width="20" height="21">
        <rect y="0.5" width="20" height="20" fill="#D9D9D9"/>
    </mask>
    <g mask="url(#mask0_252_3080)">
        <path d="M14.375 13.2083H12.5C12.3227 13.2083 12.1742 13.2682 12.0546 13.3879C11.9349 13.5075 11.875 13.656 11.875 13.8333C11.875 14.0107 11.9349 14.1592 12.0546 14.2787C12.1742 14.3985 12.3227 14.4583 12.5 14.4583H14.8719C15.0866 14.4583 15.2658 14.3865 15.4094 14.2427C15.5532 14.0991 15.625 13.9199 15.625 13.7052V11.3333C15.625 11.156 15.5652 11.0075 15.4455 10.8879C15.3259 10.7682 15.1774 10.7083 15 10.7083C14.8227 10.7083 14.6742 10.7682 14.5546 10.8879C14.4349 11.0075 14.375 11.156 14.375 11.3333V13.2083ZM5.62504 7.79167H7.50004C7.6774 7.79167 7.82587 7.73181 7.94546 7.61208C8.06518 7.4925 8.12504 7.34403 8.12504 7.16667C8.12504 6.98931 8.06518 6.84083 7.94546 6.72125C7.82587 6.60153 7.6774 6.54167 7.50004 6.54167H5.12817C4.91344 6.54167 4.73428 6.61354 4.59067 6.75729C4.44692 6.9009 4.37504 7.08007 4.37504 7.29479V9.66667C4.37504 9.84403 4.4349 9.9925 4.55462 10.1121C4.67421 10.2318 4.82268 10.2917 5.00004 10.2917C5.1774 10.2917 5.32587 10.2318 5.44546 10.1121C5.56518 9.9925 5.62504 9.84403 5.62504 9.66667V7.79167ZM3.58983 16.75C3.16886 16.75 2.81254 16.6042 2.52087 16.3125C2.22921 16.0208 2.08337 15.6645 2.08337 15.2435V5.75646C2.08337 5.33549 2.22921 4.97917 2.52087 4.6875C2.81254 4.39583 3.16886 4.25 3.58983 4.25H16.4102C16.8312 4.25 17.1875 4.39583 17.4792 4.6875C17.7709 4.97917 17.9167 5.33549 17.9167 5.75646V15.2435C17.9167 15.6645 17.7709 16.0208 17.4792 16.3125C17.1875 16.6042 16.8312 16.75 16.4102 16.75H3.58983ZM3.58983 15.5H16.4102C16.4744 15.5 16.5332 15.4733 16.5865 15.4198C16.64 15.3665 16.6667 15.3077 16.6667 15.2435V5.75646C16.6667 5.69229 16.64 5.63354 16.5865 5.58021C16.5332 5.52674 16.4744 5.5 16.4102 5.5H3.58983C3.52567 5.5 3.46692 5.52674 3.41358 5.58021C3.36011 5.63354 3.33337 5.69229 3.33337 5.75646V15.2435C3.33337 15.3077 3.36011 15.3665 3.41358 15.4198C3.46692 15.4733 3.52567 15.5 3.58983 15.5Z" fill="#BBBBC4"/>
    </g>
</svg>