<svg width="100%" height="100%" viewBox="0 0 24 25" fill="none" xmlns="http://www.w3.org/2000/svg">
<mask id="mask0_1173_1080" style="mask-type:alpha" maskUnits="userSpaceOnUse" x="0" y="0" width="24" height="25">
<rect y="0.5" width="24" height="24" fill="#D9D9D9"/>
</mask>
<g mask="url(#mask0_1173_1080)">
<path d="M4.30775 4L5.68275 6.75C5.79942 6.98333 5.96608 7.16667 6.18275 7.3C6.39942 7.43333 6.63275 7.5 6.88275 7.5C7.38275 7.5 7.76608 7.2875 8.03275 6.8625C8.29942 6.4375 8.31608 6 8.08275 5.55L7.30775 4H9.30775L10.6827 6.75C10.7994 6.98333 10.9661 7.16667 11.1827 7.3C11.3994 7.43333 11.6328 7.5 11.8828 7.5C12.3828 7.5 12.7661 7.2875 13.0328 6.8625C13.2994 6.4375 13.3161 6 13.0828 5.55L12.3077 4H14.3077L15.6827 6.75C15.7994 6.98333 15.9661 7.16667 16.1827 7.3C16.3994 7.43333 16.6328 7.5 16.8828 7.5C17.3828 7.5 17.7661 7.2875 18.0328 6.8625C18.2994 6.4375 18.3161 6 18.0828 5.55L17.3077 4H19.6923C20.1974 4 20.625 4.175 20.975 4.525C21.325 4.875 21.5 5.30258 21.5 5.80775V19.1923C21.5 19.6974 21.325 20.125 20.975 20.475C20.625 20.825 20.1974 21 19.6923 21H4.30775C3.80258 21 3.375 20.825 3.025 20.475C2.675 20.125 2.5 19.6974 2.5 19.1923V5.80775C2.5 5.30258 2.675 4.875 3.025 4.525C3.375 4.175 3.80258 4 4.30775 4ZM4 9V19.1923C4 19.2821 4.02883 19.3558 4.0865 19.4135C4.14417 19.4712 4.21792 19.5 4.30775 19.5H19.6923C19.7821 19.5 19.8558 19.4712 19.9135 19.4135C19.9712 19.3558 20 19.2821 20 19.1923V9H4Z" fill="#181826"/>
</g>
</svg>
