<svg xmlns="http://www.w3.org/2000/svg" width="25" height="24" viewBox="0 0 25 24" fill="none">
  <mask id="mask0_262_760" style="mask-type:alpha" maskUnits="userSpaceOnUse" x="0" y="0" width="25" height="24">
    <rect x="0.5" width="24" height="24" fill="#D9D9D9"/>
  </mask>
  <g mask="url(#mask0_262_760)">
    <path d="M12.5001 13.0635L9.25389 16.3095C9.10906 16.4545 8.93347 16.5254 8.72714 16.522C8.52064 16.5189 8.34497 16.4449 8.20014 16.3C8.05531 16.1552 7.98289 15.978 7.98289 15.7683C7.98289 15.5586 8.05531 15.3814 8.20014 15.2365L11.4366 12L8.19064 8.7788C8.04564 8.63396 7.97481 8.45671 7.97814 8.24705C7.98131 8.03755 8.05531 7.86038 8.20014 7.71555C8.34497 7.57055 8.52222 7.49805 8.73189 7.49805C8.94156 7.49805 9.11881 7.57055 9.26364 7.71555L12.5001 10.9615L15.7214 7.71555C15.8662 7.57055 16.0418 7.49805 16.2481 7.49805C16.4546 7.49805 16.6303 7.57055 16.7751 7.71555C16.9303 7.87055 17.0079 8.0503 17.0079 8.2548C17.0079 8.4593 16.9303 8.63396 16.7751 8.7788L13.5386 12L16.7846 15.2463C16.9296 15.3911 17.0021 15.5667 17.0021 15.773C17.0021 15.9795 16.9296 16.1552 16.7846 16.3C16.6296 16.4552 16.4499 16.5328 16.2454 16.5328C16.0409 16.5328 15.8662 16.4552 15.7214 16.3L12.5001 13.0635Z" fill="#878797"/>
  </g>
</svg>