<svg xmlns="http://www.w3.org/2000/svg" width="16" height="15" viewBox="0 0 16 15" fill="none">
    <path d="M7.99991 1.49632C9.95535 1.49632 10.187 1.50376 10.9592 1.53899C11.6732 1.57158 12.061 1.69088 12.3191 1.79115C12.6609 1.924 12.9049 2.08272 13.1611 2.33898C13.4174 2.59523 13.5761 2.83922 13.7089 3.18103C13.8092 3.43911 13.9285 3.82688 13.9611 4.54088C13.9963 5.31313 14.0038 5.54474 14.0038 7.50018C14.0038 9.45562 13.9963 9.68722 13.9611 10.4594C13.9285 11.1735 13.8092 11.5612 13.7089 11.8193C13.5761 12.1611 13.4174 12.4051 13.1611 12.6614C12.9049 12.9176 12.6609 13.0764 12.3191 13.2092C12.061 13.3095 11.6732 13.4288 10.9592 13.4614C10.1871 13.4966 9.95547 13.504 7.99991 13.504C6.04435 13.504 5.81274 13.4966 5.04064 13.4614C4.32661 13.4288 3.93884 13.3095 3.68078 13.2092C3.33895 13.0764 3.09496 12.9176 2.83871 12.6614C2.58245 12.4051 2.42373 12.1611 2.2909 11.8193C2.19061 11.5612 2.07131 11.1735 2.03872 10.4595C2.00349 9.68722 1.99604 9.45562 1.99604 7.50018C1.99604 5.54474 2.00349 5.31313 2.03872 4.54091C2.07131 3.82688 2.19061 3.43911 2.2909 3.18103C2.42373 2.83922 2.58245 2.59523 2.83871 2.33898C3.09496 2.08272 3.33895 1.924 3.68078 1.79115C3.93884 1.69088 4.32661 1.57158 5.04061 1.53899C5.81286 1.50376 6.04446 1.49632 7.99991 1.49632ZM7.99991 0.176758C6.01097 0.176758 5.76161 0.185188 4.98049 0.220828C4.20097 0.25641 3.66863 0.380192 3.20278 0.561242C2.7212 0.748396 2.31279 0.998808 1.90566 1.40594C1.49853 1.81307 1.24812 2.22148 1.06097 2.70305C0.879919 3.16891 0.756137 3.70124 0.720555 4.48076C0.684915 5.26185 0.676514 5.51125 0.676514 7.50018C0.676514 9.48911 0.684915 9.7385 0.720555 10.5196C0.756137 11.2991 0.879919 11.8315 1.06097 12.2973C1.24812 12.7789 1.49853 13.1873 1.90566 13.5944C2.31279 14.0015 2.7212 14.252 3.20278 14.4391C3.66863 14.6202 4.20097 14.7439 4.98049 14.7795C5.76161 14.8152 6.01097 14.8236 7.99991 14.8236C9.98884 14.8236 10.2382 14.8152 11.0193 14.7795C11.7988 14.7439 12.3312 14.6202 12.797 14.4391C13.2786 14.252 13.687 14.0015 14.0941 13.5944C14.5013 13.1873 14.7517 12.7789 14.9388 12.2973C15.1199 11.8315 15.2437 11.2991 15.2793 10.5196C15.3149 9.7385 15.3233 9.48911 15.3233 7.50018C15.3233 5.51125 15.3149 5.26185 15.2793 4.48076C15.2437 3.70124 15.1199 3.16891 14.9388 2.70305C14.7517 2.22148 14.5013 1.81307 14.0941 1.40594C13.687 0.998808 13.2786 0.748396 12.797 0.561242C12.3312 0.380192 11.7988 0.25641 11.0193 0.220828C10.2382 0.185188 9.98884 0.176758 7.99991 0.176758ZM7.99991 3.7395C5.92295 3.7395 4.23922 5.42322 4.23922 7.50018C4.23922 9.57714 5.92295 11.2609 7.99991 11.2609C10.0769 11.2609 11.7606 9.57714 11.7606 7.50018C11.7606 5.42322 10.0769 3.7395 7.99991 3.7395ZM7.99991 9.94133C6.65171 9.94133 5.55876 8.84837 5.55876 7.50018C5.55876 6.15199 6.65171 5.05903 7.99991 5.05903C9.3481 5.05903 10.4411 6.15199 10.4411 7.50018C10.4411 8.84837 9.3481 9.94133 7.99991 9.94133ZM12.788 3.59092C12.788 4.07628 12.3945 4.46974 11.9092 4.46974C11.4238 4.46974 11.0303 4.07628 11.0303 3.59092C11.0303 3.10556 11.4238 2.71212 11.9092 2.71212C12.3945 2.71212 12.788 3.10556 12.788 3.59092Z" fill="#59596F"/>
</svg>