<svg xmlns="http://www.w3.org/2000/svg" width="16" height="15" viewBox="0 0 16 15" fill="none">
  <path d="M7.99991 1.49607C9.95535 1.49607 10.187 1.50352 10.9592 1.53875C11.6732 1.57134 12.061 1.69064 12.3191 1.7909C12.6609 1.92376 12.9049 2.08248 13.1611 2.33873C13.4174 2.59499 13.5761 2.83898 13.7089 3.18078C13.8092 3.43887 13.9285 3.82664 13.9611 4.54064C13.9963 5.31289 14.0038 5.54449 14.0038 7.49994C14.0038 9.45538 13.9963 9.68698 13.9611 10.4592C13.9285 11.1732 13.8092 11.561 13.7089 11.8191C13.5761 12.1609 13.4174 12.4049 13.1611 12.6611C12.9049 12.9174 12.6609 13.0761 12.3191 13.2089C12.061 13.3092 11.6732 13.4285 10.9592 13.4611C10.1871 13.4964 9.95547 13.5038 7.99991 13.5038C6.04435 13.5038 5.81274 13.4964 5.04064 13.4611C4.32661 13.4285 3.93884 13.3092 3.68078 13.2089C3.33895 13.0761 3.09496 12.9174 2.83871 12.6611C2.58245 12.4049 2.42373 12.1609 2.2909 11.8191C2.19061 11.561 2.07131 11.1732 2.03872 10.4592C2.00349 9.68698 1.99604 9.45538 1.99604 7.49994C1.99604 5.54449 2.00349 5.31289 2.03872 4.54066C2.07131 3.82664 2.19061 3.43887 2.2909 3.18078C2.42373 2.83898 2.58245 2.59499 2.83871 2.33873C3.09496 2.08248 3.33895 1.92376 3.68078 1.7909C3.93884 1.69064 4.32661 1.57134 5.04061 1.53875C5.81286 1.50352 6.04446 1.49607 7.99991 1.49607ZM7.99991 0.176514C6.01097 0.176514 5.76161 0.184944 4.98049 0.220584C4.20097 0.256166 3.66863 0.379948 3.20278 0.560998C2.7212 0.748152 2.31279 0.998564 1.90566 1.40569C1.49853 1.81282 1.24812 2.22123 1.06097 2.70281C0.879919 3.16866 0.756137 3.701 0.720555 4.48052C0.684915 5.26161 0.676514 5.511 0.676514 7.49994C0.676514 9.48887 0.684915 9.73826 0.720555 10.5194C0.756137 11.2989 0.879919 11.8312 1.06097 12.2971C1.24812 12.7786 1.49853 13.187 1.90566 13.5942C2.31279 14.0013 2.7212 14.2517 3.20278 14.4389C3.66863 14.6199 4.20097 14.7437 4.98049 14.7793C5.76161 14.8149 6.01097 14.8233 7.99991 14.8233C9.98884 14.8233 10.2382 14.8149 11.0193 14.7793C11.7988 14.7437 12.3312 14.6199 12.797 14.4389C13.2786 14.2517 13.687 14.0013 14.0941 13.5942C14.5013 13.187 14.7517 12.7786 14.9388 12.2971C15.1199 11.8312 15.2437 11.2989 15.2793 10.5194C15.3149 9.73826 15.3233 9.48887 15.3233 7.49994C15.3233 5.511 15.3149 5.26161 15.2793 4.48052C15.2437 3.701 15.1199 3.16866 14.9388 2.70281C14.7517 2.22123 14.5013 1.81282 14.0941 1.40569C13.687 0.998564 13.2786 0.748152 12.797 0.560998C12.3312 0.379948 11.7988 0.256166 11.0193 0.220584C10.2382 0.184944 9.98884 0.176514 7.99991 0.176514ZM7.99991 3.73925C5.92295 3.73925 4.23922 5.42298 4.23922 7.49994C4.23922 9.57689 5.92295 11.2606 7.99991 11.2606C10.0769 11.2606 11.7606 9.57689 11.7606 7.49994C11.7606 5.42298 10.0769 3.73925 7.99991 3.73925ZM7.99991 9.94108C6.65171 9.94108 5.55876 8.84813 5.55876 7.49994C5.55876 6.15174 6.65171 5.05878 7.99991 5.05878C9.3481 5.05878 10.4411 6.15174 10.4411 7.49994C10.4411 8.84813 9.3481 9.94108 7.99991 9.94108ZM12.788 3.59068C12.788 4.07603 12.3945 4.4695 11.9092 4.4695C11.4238 4.4695 11.0303 4.07603 11.0303 3.59068C11.0303 3.10532 11.4238 2.71188 11.9092 2.71188C12.3945 2.71188 12.788 3.10532 12.788 3.59068Z" fill="#current"/>
</svg>