<svg width="100%" height="100%" viewBox="0 0 24 25" fill="none" xmlns="http://www.w3.org/2000/svg">
<path d="M12 5.29539C14.3465 5.29539 14.6244 5.30432 15.5511 5.3466C16.4079 5.3857 16.8733 5.52887 17.183 5.64918C17.5931 5.8086 17.8859 5.99907 18.1934 6.30658C18.5009 6.61408 18.6914 6.90687 18.8508 7.31704C18.9711 7.62674 19.1143 8.09207 19.1534 8.94886C19.1957 9.87556 19.2046 10.1535 19.2046 12.5C19.2046 14.8466 19.1957 15.1245 19.1534 16.0511C19.1143 16.908 18.9711 17.3733 18.8508 17.683C18.6914 18.0932 18.5009 18.386 18.1934 18.6935C17.8859 19.001 17.5931 19.1914 17.183 19.3508C16.8733 19.4712 16.4079 19.6143 15.5511 19.6534C14.6246 19.6957 14.3467 19.7047 12 19.7047C9.65331 19.7047 9.37539 19.6957 8.44886 19.6534C7.59203 19.6143 7.12671 19.4712 6.81704 19.3508C6.40683 19.1914 6.11405 19.001 5.80654 18.6935C5.49904 18.386 5.30857 18.0932 5.14918 17.683C5.02883 17.3733 4.88567 16.908 4.84656 16.0512C4.80428 15.1245 4.79535 14.8466 4.79535 12.5C4.79535 10.1535 4.80428 9.87556 4.84656 8.9489C4.88567 8.09207 5.02883 7.62674 5.14918 7.31704C5.30857 6.90687 5.49904 6.61408 5.80654 6.30658C6.11405 5.99907 6.40683 5.8086 6.81704 5.64918C7.12671 5.52887 7.59203 5.3857 8.44882 5.3466C9.37553 5.30432 9.65345 5.29539 12 5.29539ZM12 3.71191C9.61327 3.71191 9.31403 3.72203 8.37668 3.7648C7.44126 3.8075 6.80246 3.95603 6.24344 4.17329C5.66554 4.39788 5.17545 4.69837 4.68689 5.18693C4.19834 5.67549 3.89785 6.16558 3.67326 6.74347C3.456 7.30249 3.30746 7.9413 3.26476 8.87672C3.222 9.81403 3.21191 10.1133 3.21191 12.5C3.21191 14.8867 3.222 15.186 3.26476 16.1233C3.30746 17.0587 3.456 17.6975 3.67326 18.2566C3.89785 18.8344 4.19834 19.3246 4.68689 19.8131C5.17545 20.3017 5.66554 20.6022 6.24344 20.8267C6.80246 21.044 7.44126 21.1925 8.37668 21.2352C9.31403 21.278 9.61327 21.2881 12 21.2881C14.3867 21.2881 14.686 21.278 15.6233 21.2352C16.5587 21.1925 17.1975 21.044 17.7565 20.8267C18.3344 20.6022 18.8245 20.3017 19.3131 19.8131C19.8016 19.3246 20.1021 18.8345 20.3267 18.2566C20.544 17.6975 20.6925 17.0587 20.7352 16.1233C20.778 15.186 20.7881 14.8867 20.7881 12.5C20.7881 10.1133 20.778 9.81403 20.7352 8.87672C20.6925 7.9413 20.544 7.30249 20.3267 6.74347C20.1021 6.16558 19.8016 5.67549 19.3131 5.18693C18.8245 4.69837 18.3344 4.39788 17.7565 4.17329C17.1975 3.95603 16.5587 3.8075 15.6233 3.7648C14.686 3.72203 14.3867 3.71191 12 3.71191ZM12 7.9872C9.50764 7.9872 7.48717 10.0077 7.48717 12.5C7.48717 14.9924 9.50764 17.0128 12 17.0128C14.4923 17.0128 16.5128 14.9924 16.5128 12.5C16.5128 10.0077 14.4923 7.9872 12 7.9872ZM12 15.4294C10.3822 15.4294 9.0706 14.1179 9.0706 12.5C9.0706 10.8822 10.3822 9.57064 12 9.57064C13.6178 9.57064 14.9294 10.8822 14.9294 12.5C14.9294 14.1179 13.6178 15.4294 12 15.4294ZM17.7456 7.80891C17.7456 8.39134 17.2735 8.8635 16.6911 8.8635C16.1087 8.8635 15.6365 8.39134 15.6365 7.80891C15.6365 7.22648 16.1087 6.75435 16.6911 6.75435C17.2735 6.75435 17.7456 7.22648 17.7456 7.80891Z" fill="#181826"/>
</svg>
