<svg width="100%" height="100%" viewBox="0 0 20 21" fill="none" xmlns="http://www.w3.org/2000/svg">
<path d="M9.99991 4.49632C11.9553 4.49632 12.187 4.50376 12.9592 4.53899C13.6732 4.57158 14.061 4.69088 14.3191 4.79115C14.6609 4.924 14.9049 5.08272 15.1611 5.33898C15.4174 5.59523 15.5761 5.83922 15.7089 6.18103C15.8092 6.43911 15.9285 6.82688 15.9611 7.54088C15.9963 8.31313 16.0038 8.54474 16.0038 10.5002C16.0038 12.4556 15.9963 12.6872 15.9611 13.4594C15.9285 14.1735 15.8092 14.5612 15.7089 14.8193C15.5761 15.1611 15.4174 15.4051 15.1611 15.6614C14.9049 15.9176 14.6609 16.0764 14.3191 16.2092C14.061 16.3095 13.6732 16.4288 12.9592 16.4614C12.1871 16.4966 11.9555 16.504 9.99991 16.504C8.04435 16.504 7.81274 16.4966 7.04064 16.4614C6.32661 16.4288 5.93884 16.3095 5.68078 16.2092C5.33895 16.0764 5.09496 15.9176 4.8387 15.6614C4.58245 15.4051 4.42373 15.1611 4.2909 14.8193C4.19061 14.5612 4.07131 14.1735 4.03872 13.4595C4.00349 12.6872 3.99604 12.4556 3.99604 10.5002C3.99604 8.54474 4.00349 8.31313 4.03872 7.54091C4.07131 6.82688 4.19061 6.43911 4.2909 6.18103C4.42373 5.83922 4.58245 5.59523 4.8387 5.33898C5.09496 5.08272 5.33895 4.924 5.68078 4.79115C5.93884 4.69088 6.32661 4.57158 7.04061 4.53899C7.81286 4.50376 8.04446 4.49632 9.99991 4.49632ZM9.99991 3.17676C8.01097 3.17676 7.76161 3.18519 6.98049 3.22083C6.20097 3.25641 5.66863 3.38019 5.20278 3.56124C4.7212 3.7484 4.31279 3.99881 3.90566 4.40594C3.49853 4.81307 3.24812 5.22148 3.06097 5.70305C2.87992 6.16891 2.75614 6.70124 2.72056 7.48076C2.68491 8.26185 2.67651 8.51125 2.67651 10.5002C2.67651 12.4891 2.68491 12.7385 2.72056 13.5196C2.75614 14.2991 2.87992 14.8315 3.06097 15.2973C3.24812 15.7789 3.49853 16.1873 3.90566 16.5944C4.31279 17.0015 4.7212 17.252 5.20278 17.4391C5.66863 17.6202 6.20097 17.7439 6.98049 17.7795C7.76161 17.8152 8.01097 17.8236 9.99991 17.8236C11.9888 17.8236 12.2382 17.8152 13.0193 17.7795C13.7988 17.7439 14.3312 17.6202 14.797 17.4391C15.2786 17.252 15.687 17.0015 16.0941 16.5944C16.5013 16.1873 16.7517 15.7789 16.9388 15.2973C17.1199 14.8315 17.2437 14.2991 17.2793 13.5196C17.3149 12.7385 17.3233 12.4891 17.3233 10.5002C17.3233 8.51125 17.3149 8.26185 17.2793 7.48076C17.2437 6.70124 17.1199 6.16891 16.9388 5.70305C16.7517 5.22148 16.5013 4.81307 16.0941 4.40594C15.687 3.99881 15.2786 3.7484 14.797 3.56124C14.3312 3.38019 13.7988 3.25641 13.0193 3.22083C12.2382 3.18519 11.9888 3.17676 9.99991 3.17676ZM9.99991 6.7395C7.92295 6.7395 6.23922 8.42322 6.23922 10.5002C6.23922 12.5771 7.92295 14.2609 9.99991 14.2609C12.0769 14.2609 13.7606 12.5771 13.7606 10.5002C13.7606 8.42322 12.0769 6.7395 9.99991 6.7395ZM9.99991 12.9413C8.65171 12.9413 7.55876 11.8484 7.55876 10.5002C7.55876 9.15199 8.65171 8.05903 9.99991 8.05903C11.3481 8.05903 12.4411 9.15199 12.4411 10.5002C12.4411 11.8484 11.3481 12.9413 9.99991 12.9413ZM14.788 6.59092C14.788 7.07628 14.3945 7.46974 13.9092 7.46974C13.4238 7.46974 13.0303 7.07628 13.0303 6.59092C13.0303 6.10556 13.4238 5.71212 13.9092 5.71212C14.3945 5.71212 14.788 6.10556 14.788 6.59092Z" fill="#59596F"/>
</svg>
