<svg xmlns="http://www.w3.org/2000/svg" width="20" height="21" viewBox="0 0 20 21" fill="none">
  <mask id="mask0_210_335" style="mask-type:alpha" maskUnits="userSpaceOnUse" x="0" y="0" width="20" height="21">
    <rect y="0.5" width="20" height="20" fill="#D9D9D9"/>
  </mask>
  <g mask="url(#mask0_210_335)">
    <path d="M5.86534 14.2824C4.81895 14.2824 3.927 13.9137 3.1895 13.1762C2.452 12.4388 2.08325 11.547 2.08325 10.5008C2.08325 9.45451 2.452 8.56257 3.1895 7.82493C3.927 7.08715 4.81895 6.71826 5.86534 6.71826H8.38138C8.55846 6.71826 8.70686 6.77819 8.82659 6.89805C8.94645 7.01791 9.00638 7.16646 9.00638 7.34368C9.00638 7.52076 8.94645 7.66916 8.82659 7.78889C8.70686 7.90847 8.55846 7.96826 8.38138 7.96826H5.86429C5.16513 7.96826 4.56853 8.21534 4.0745 8.70951C3.58034 9.20368 3.33325 9.80062 3.33325 10.5003C3.33325 11.2001 3.58034 11.797 4.0745 12.2912C4.56853 12.7853 5.16513 13.0324 5.86429 13.0324H8.38138C8.55846 13.0324 8.70686 13.0924 8.82659 13.2122C8.94645 13.3321 9.00638 13.4806 9.00638 13.6576C9.00638 13.8349 8.94645 13.9833 8.82659 14.1028C8.70686 14.2226 8.55846 14.2824 8.38138 14.2824H5.86534ZM7.49992 11.1253C7.32284 11.1253 7.17443 11.0654 7.05471 10.9456C6.93485 10.8257 6.87492 10.6772 6.87492 10.5001C6.87492 10.3229 6.93485 10.1745 7.05471 10.0549C7.17443 9.93521 7.32284 9.87534 7.49992 9.87534H12.4999C12.677 9.87534 12.8254 9.93528 12.9451 10.0551C13.065 10.175 13.1249 10.3235 13.1249 10.5006C13.1249 10.6778 13.065 10.8262 12.9451 10.9458C12.8254 11.0655 12.677 11.1253 12.4999 11.1253H7.49992ZM11.6185 14.2824C11.4414 14.2824 11.293 14.2225 11.1733 14.1026C11.0534 13.9828 10.9935 13.8342 10.9935 13.657C10.9935 13.4799 11.0534 13.3315 11.1733 13.2118C11.293 13.0922 11.4414 13.0324 11.6185 13.0324H14.1355C14.8347 13.0324 15.4313 12.7853 15.9253 12.2912C16.4195 11.797 16.6666 11.2001 16.6666 10.5003C16.6666 9.80062 16.4195 9.20368 15.9253 8.70951C15.4313 8.21534 14.8347 7.96826 14.1355 7.96826H11.6185C11.4414 7.96826 11.293 7.90833 11.1733 7.78847C11.0534 7.66861 10.9935 7.52014 10.9935 7.34305C10.9935 7.16583 11.0534 7.01743 11.1733 6.89784C11.293 6.77812 11.4414 6.71826 11.6185 6.71826H14.1345C15.1809 6.71826 16.0728 7.08701 16.8103 7.82451C17.5478 8.56187 17.9166 9.45368 17.9166 10.4999C17.9166 11.5462 17.5478 12.4381 16.8103 13.1758C16.0728 13.9135 15.1809 14.2824 14.1345 14.2824H11.6185Z" fill="#59596F"/>
  </g>
</svg>