<svg xmlns="http://www.w3.org/2000/svg" width="20" height="21" viewBox="0 0 20 21" fill="none">
    <mask id="mask0_252_3075" style="mask-type:alpha" maskUnits="userSpaceOnUse" x="0" y="0" width="20" height="21">
        <rect y="0.5" width="20" height="20" fill="current"/>
    </mask>
    <g mask="url(#mask0_252_3075)">
        <path d="M5.86534 14.2819C4.81895 14.2819 3.927 13.9132 3.1895 13.1757C2.452 12.4383 2.08325 11.5465 2.08325 10.5003C2.08325 9.45402 2.452 8.56208 3.1895 7.82444C3.927 7.08666 4.81895 6.71777 5.86534 6.71777H8.38138C8.55846 6.71777 8.70686 6.7777 8.82659 6.89757C8.94645 7.01743 9.00638 7.16597 9.00638 7.34319C9.00638 7.52027 8.94645 7.66868 8.82659 7.7884C8.70686 7.90798 8.55846 7.96777 8.38138 7.96777H5.86429C5.16513 7.96777 4.56853 8.21486 4.0745 8.70902C3.58034 9.20319 3.33325 9.80013 3.33325 10.4999C3.33325 11.1996 3.58034 11.7965 4.0745 12.2907C4.56853 12.7849 5.16513 13.0319 5.86429 13.0319H8.38138C8.55846 13.0319 8.70686 13.0919 8.82659 13.2117C8.94645 13.3316 9.00638 13.4801 9.00638 13.6571C9.00638 13.8344 8.94645 13.9828 8.82659 14.1024C8.70686 14.2221 8.55846 14.2819 8.38138 14.2819H5.86534ZM7.49992 11.1249C7.32284 11.1249 7.17443 11.0649 7.05471 10.9451C6.93485 10.8252 6.87492 10.6767 6.87492 10.4996C6.87492 10.3224 6.93485 10.174 7.05471 10.0544C7.17443 9.93472 7.32284 9.87486 7.49992 9.87486H12.4999C12.677 9.87486 12.8254 9.93479 12.9451 10.0546C13.065 10.1745 13.1249 10.323 13.1249 10.5001C13.1249 10.6773 13.065 10.8257 12.9451 10.9453C12.8254 11.065 12.677 11.1249 12.4999 11.1249H7.49992ZM11.6185 14.2819C11.4414 14.2819 11.293 14.222 11.1733 14.1021C11.0534 13.9823 10.9935 13.8337 10.9935 13.6565C10.9935 13.4794 11.0534 13.331 11.1733 13.2113C11.293 13.0917 11.4414 13.0319 11.6185 13.0319H14.1355C14.8347 13.0319 15.4313 12.7849 15.9253 12.2907C16.4195 11.7965 16.6666 11.1996 16.6666 10.4999C16.6666 9.80013 16.4195 9.20319 15.9253 8.70902C15.4313 8.21486 14.8347 7.96777 14.1355 7.96777H11.6185C11.4414 7.96777 11.293 7.90784 11.1733 7.78798C11.0534 7.66812 10.9935 7.51965 10.9935 7.34257C10.9935 7.16534 11.0534 7.01694 11.1733 6.89736C11.293 6.77763 11.4414 6.71777 11.6185 6.71777H14.1345C15.1809 6.71777 16.0728 7.08652 16.8103 7.82402C17.5478 8.56138 17.9166 9.45319 17.9166 10.4994C17.9166 11.5457 17.5478 12.4376 16.8103 13.1753C16.0728 13.9131 15.1809 14.2819 14.1345 14.2819H11.6185Z" fill="current"/>
    </g>
</svg>