<svg width="109" height="30" viewBox="0 0 109 30" fill="none" xmlns="http://www.w3.org/2000/svg">
<mask id="path-1-outside-1_2117_31" maskUnits="userSpaceOnUse" x="0" y="0" width="109" height="30" fill="black">
<rect fill="white" width="109" height="30"/>
<path d="M62.1706 5.84232C61.9044 5.64324 61.5771 5.55988 61.2474 5.60716C60.9189 5.65444 60.6278 5.82739 60.4287 6.09366C60.2296 6.35992 60.1463 6.68715 60.1935 7.01688C60.2408 7.34535 60.4138 7.6365 60.68 7.83558C63.1548 9.68824 64.6317 12.9033 64.6317 16.4382C64.6317 21.9924 60.9401 26.5115 56.4036 26.5115C51.8671 26.5115 48.1755 21.9924 48.1755 16.4382C48.1755 12.9033 49.6524 9.68824 52.1272 7.83558C52.3934 7.6365 52.5664 7.34535 52.6137 7.01688C52.6609 6.6884 52.5776 6.35992 52.3785 6.09366C51.9679 5.54371 51.1865 5.43172 50.6366 5.84356C47.5372 8.16281 45.687 12.1244 45.687 16.4382C45.687 23.3648 50.4947 28.9999 56.4036 28.9999C62.3125 28.9999 67.1202 23.3648 67.1202 16.4382C67.1202 12.1232 65.27 8.16281 62.1706 5.84356V5.84232Z"/>
<path d="M107.672 14.1747C107.514 13.9284 107.285 13.7704 107.028 13.7318C103.242 13.1545 99.0353 12.9056 94.1965 12.9716C94.3471 10.7755 94.1753 8.5558 93.6677 6.3983C97.1043 6.2913 101.382 5.53605 104.628 2.91694C104.83 2.75395 104.95 2.50759 104.967 2.22142C104.987 1.88921 104.862 1.54456 104.644 1.3206C104.231 0.898801 103.585 0.89258 103.074 1.30566C100.006 3.78044 95.4731 4.22836 92.2082 4.1674C91.8648 4.16491 91.5289 4.33039 91.3099 4.62154C91.0921 4.91145 91.0249 5.26356 91.1257 5.5908C92.8801 11.272 91.9507 17.6238 88.6397 22.5808C88.4257 22.9018 88.4158 23.3099 88.6136 23.6707C88.8214 24.0515 89.2021 24.2829 89.6053 24.2754C92.1099 24.2244 94.7079 24.5703 97.3258 25.2982C100.232 26.1057 102.492 27.1732 104.231 28.5605C104.485 28.7621 104.766 28.8629 105.039 28.8629C105.311 28.8629 105.584 28.7571 105.798 28.5481C106.015 28.3341 106.141 27.9932 106.124 27.6585C106.109 27.3648 105.988 27.1123 105.784 26.9493C103.727 25.3081 101.216 24.0801 98.1084 23.1917C95.9086 22.5634 93.7162 22.1876 91.5649 22.0706C92.7283 19.9318 93.5209 17.6076 93.929 15.2174C95.6373 15.1975 97.4912 15.2386 99.8279 15.3468C102.193 15.4563 104.327 15.5733 106.477 15.9017C106.557 15.9142 106.634 15.9192 106.71 15.9192C107.254 15.9192 107.69 15.6156 107.833 15.1166C107.918 14.8217 107.857 14.4609 107.674 14.176L107.672 14.1747Z"/>
<path d="M86.3523 5.92385C83.656 3.61953 79.4642 2.77345 75.6717 3.7676C72.0722 4.71197 69.4618 7.40946 69.0213 10.642C68.9317 11.3014 69.2403 11.8327 69.8064 11.9945C70.1013 12.0791 70.4758 12.0131 70.7608 11.8277C71.0034 11.6685 71.1564 11.442 71.1913 11.1894C71.5571 8.49941 73.3363 7.13946 74.7647 6.47131C77.5705 5.15989 81.4973 5.39754 84.1027 7.03495C86.2876 8.40733 87.8541 11.5664 86.5737 14.2764C85.4937 16.5645 82.9306 17.9543 80.044 17.8187C78.6666 17.754 77.1735 17.4591 75.6033 16.9415C74.5295 16.5882 72.9705 15.9971 71.8395 14.9582C71.4973 14.6434 70.9237 14.5787 70.4771 14.8027C70.0951 14.9943 69.891 15.3576 69.9346 15.7744C70.3452 19.7709 69.8151 23.6952 68.3569 27.4391C68.2623 27.6817 68.281 27.9567 68.4091 28.2143C68.556 28.5116 68.8334 28.7493 69.132 28.8339C69.2328 28.8625 69.3336 28.8762 69.4319 28.8762C69.891 28.8762 70.3091 28.5738 70.5044 28.0699C71.7487 24.8735 72.3608 21.4332 72.3061 18.0028C74.7896 19.379 77.66 19.8493 79.3808 20.0098C83.0513 20.3532 86.4219 18.8178 88.1751 16.0046C90.1186 12.8878 89.3173 8.45959 86.351 5.92385H86.3523Z"/>
<path d="M33.0275 4.48999C27.4198 4.48999 22.8584 9.987 22.8584 16.7444C22.8584 17.1749 22.8771 17.6092 22.9144 18.0347C22.943 18.3657 23.0998 18.6668 23.3548 18.8808C23.6099 19.0948 23.9322 19.1956 24.2619 19.1669C24.5929 19.1383 24.8927 18.9828 25.1067 18.7277C25.3207 18.4739 25.4228 18.1504 25.3941 17.8194C25.363 17.4648 25.3481 17.1028 25.3481 16.7444C25.3481 11.3594 28.7934 6.97845 33.0288 6.97845C37.2642 6.97845 40.7094 11.3594 40.7094 16.7444C40.7094 22.1295 37.2642 26.5104 33.0288 26.5104C31.262 26.5104 29.5337 25.7215 28.1638 24.2907C27.6898 23.7955 26.8997 23.7781 26.4045 24.2521C25.9093 24.7262 25.8918 25.5163 26.3659 26.0115C28.2099 27.9388 30.5764 28.9989 33.0288 28.9989C38.6365 28.9989 43.1979 23.5018 43.1979 16.7444C43.1979 9.987 38.6365 4.48999 33.0288 4.48999H33.0275Z"/>
<path d="M21.9941 25.5548C21.6644 25.3756 21.2923 25.3918 20.9489 25.6021C18.5264 27.084 15.8127 25.3731 13.6328 23.997L13.4674 23.8925C12.6175 23.3575 11.7702 22.8436 10.9129 22.4094C11.1245 21.801 11.3123 21.1552 11.4766 20.4734C11.9929 18.3283 12.1895 16.1036 12.3786 13.9511C12.4297 13.3676 12.4832 12.7641 12.5416 12.1718C12.579 11.7948 12.6225 11.383 12.6773 10.945C13.2061 10.8642 13.6988 10.7236 14.1554 10.5195C15.0674 10.1139 15.9135 9.40095 16.7447 8.34335C17.6082 7.24221 18.0275 6.31401 18.1482 5.23775C18.2788 4.06942 17.9516 3.02302 17.2498 2.36606C16.2955 1.47271 14.6718 1.42045 13.5545 2.24662C12.3612 3.12878 11.8337 4.73881 11.4492 5.91461C11.1717 6.75944 10.9503 7.65902 10.7611 8.71662C10.1266 8.62828 9.48954 8.46653 8.90101 8.29731C6.37024 7.57317 4.25504 6.28042 2.9461 4.65794C2.78311 4.45637 2.53675 4.33568 2.25182 4.31951C1.91961 4.30084 1.57496 4.42278 1.35099 4.64176C0.929197 5.05485 0.922976 5.7006 1.33606 6.21198C2.55666 7.72497 4.41803 8.98786 6.86669 9.96458C8.1582 10.4797 9.34894 10.8069 10.4352 10.9463C10.3257 11.8782 10.2435 12.8176 10.1652 13.7334C10.0171 15.4342 9.86529 17.1936 9.53184 18.8957C9.34147 19.8674 9.11129 20.7521 8.84004 21.5534C7.76876 21.2249 6.66637 21.0805 5.50798 21.2249C3.87679 21.4289 2.26924 22.4206 1.50777 23.6922C0.934174 24.6515 0.844589 25.7128 1.24897 26.7617C1.71555 27.9723 2.84532 28.7574 4.27121 28.862C4.36329 28.8682 4.45536 28.8719 4.54619 28.8719C5.92231 28.8719 7.05954 28.1154 7.78867 27.4572C8.66212 26.6684 9.41488 25.6655 10.0407 24.4574C10.8321 24.873 11.5848 25.3483 12.2629 25.7763C12.4135 25.8708 12.5603 25.9642 12.7034 26.0537C15.5875 27.8579 18.9582 29.4443 22.0874 27.5294C22.4346 27.3166 22.6287 26.972 22.6187 26.5838C22.6075 26.1632 22.3574 25.7489 21.9966 25.5523L21.9941 25.5548ZM15.0077 6.95106C14.3644 7.76603 13.7374 8.28612 13.0667 8.55238C13.119 8.30229 13.1762 8.05096 13.2384 7.80087C13.4051 7.13147 13.6005 6.49442 13.8207 5.90715L13.8518 5.82503C14.0646 5.25268 14.3072 4.60444 14.7215 4.1926C14.9119 4.00347 15.1284 3.90269 15.3312 3.90269C15.3959 3.90269 15.4581 3.91264 15.5191 3.9338C15.7455 4.01343 15.8961 4.23614 15.9309 4.54596C16.0404 5.50526 15.4967 6.33516 15.009 6.9523L15.0077 6.95106ZM6.2172 25.8634C5.56895 26.4469 4.32472 27.0466 3.55827 26.3088C3.31066 26.0699 3.20366 25.7788 3.24223 25.4441C3.31191 24.8307 3.84195 24.216 4.32845 23.9249C4.99038 23.5292 5.68715 23.365 6.39637 23.365C6.91397 23.365 7.43779 23.452 7.96037 23.5989C7.46641 24.5096 6.8866 25.2612 6.2172 25.8634Z"/>
</mask>
<path d="M62.1706 5.84232C61.9044 5.64324 61.5771 5.55988 61.2474 5.60716C60.9189 5.65444 60.6278 5.82739 60.4287 6.09366C60.2296 6.35992 60.1463 6.68715 60.1935 7.01688C60.2408 7.34535 60.4138 7.6365 60.68 7.83558C63.1548 9.68824 64.6317 12.9033 64.6317 16.4382C64.6317 21.9924 60.9401 26.5115 56.4036 26.5115C51.8671 26.5115 48.1755 21.9924 48.1755 16.4382C48.1755 12.9033 49.6524 9.68824 52.1272 7.83558C52.3934 7.6365 52.5664 7.34535 52.6137 7.01688C52.6609 6.6884 52.5776 6.35992 52.3785 6.09366C51.9679 5.54371 51.1865 5.43172 50.6366 5.84356C47.5372 8.16281 45.687 12.1244 45.687 16.4382C45.687 23.3648 50.4947 28.9999 56.4036 28.9999C62.3125 28.9999 67.1202 23.3648 67.1202 16.4382C67.1202 12.1232 65.27 8.16281 62.1706 5.84356V5.84232Z" fill="url(#paint0_linear_2117_31)"/>
<path d="M107.672 14.1747C107.514 13.9284 107.285 13.7704 107.028 13.7318C103.242 13.1545 99.0353 12.9056 94.1965 12.9716C94.3471 10.7755 94.1753 8.5558 93.6677 6.3983C97.1043 6.2913 101.382 5.53605 104.628 2.91694C104.83 2.75395 104.95 2.50759 104.967 2.22142C104.987 1.88921 104.862 1.54456 104.644 1.3206C104.231 0.898801 103.585 0.89258 103.074 1.30566C100.006 3.78044 95.4731 4.22836 92.2082 4.1674C91.8648 4.16491 91.5289 4.33039 91.3099 4.62154C91.0921 4.91145 91.0249 5.26356 91.1257 5.5908C92.8801 11.272 91.9507 17.6238 88.6397 22.5808C88.4257 22.9018 88.4158 23.3099 88.6136 23.6707C88.8214 24.0515 89.2021 24.2829 89.6053 24.2754C92.1099 24.2244 94.7079 24.5703 97.3258 25.2982C100.232 26.1057 102.492 27.1732 104.231 28.5605C104.485 28.7621 104.766 28.8629 105.039 28.8629C105.311 28.8629 105.584 28.7571 105.798 28.5481C106.015 28.3341 106.141 27.9932 106.124 27.6585C106.109 27.3648 105.988 27.1123 105.784 26.9493C103.727 25.3081 101.216 24.0801 98.1084 23.1917C95.9086 22.5634 93.7162 22.1876 91.5649 22.0706C92.7283 19.9318 93.5209 17.6076 93.929 15.2174C95.6373 15.1975 97.4912 15.2386 99.8279 15.3468C102.193 15.4563 104.327 15.5733 106.477 15.9017C106.557 15.9142 106.634 15.9192 106.71 15.9192C107.254 15.9192 107.69 15.6156 107.833 15.1166C107.918 14.8217 107.857 14.4609 107.674 14.176L107.672 14.1747Z" fill="url(#paint1_linear_2117_31)"/>
<path d="M86.3523 5.92385C83.656 3.61953 79.4642 2.77345 75.6717 3.7676C72.0722 4.71197 69.4618 7.40946 69.0213 10.642C68.9317 11.3014 69.2403 11.8327 69.8064 11.9945C70.1013 12.0791 70.4758 12.0131 70.7608 11.8277C71.0034 11.6685 71.1564 11.442 71.1913 11.1894C71.5571 8.49941 73.3363 7.13946 74.7647 6.47131C77.5705 5.15989 81.4973 5.39754 84.1027 7.03495C86.2876 8.40733 87.8541 11.5664 86.5737 14.2764C85.4937 16.5645 82.9306 17.9543 80.044 17.8187C78.6666 17.754 77.1735 17.4591 75.6033 16.9415C74.5295 16.5882 72.9705 15.9971 71.8395 14.9582C71.4973 14.6434 70.9237 14.5787 70.4771 14.8027C70.0951 14.9943 69.891 15.3576 69.9346 15.7744C70.3452 19.7709 69.8151 23.6952 68.3569 27.4391C68.2623 27.6817 68.281 27.9567 68.4091 28.2143C68.556 28.5116 68.8334 28.7493 69.132 28.8339C69.2328 28.8625 69.3336 28.8762 69.4319 28.8762C69.891 28.8762 70.3091 28.5738 70.5044 28.0699C71.7487 24.8735 72.3608 21.4332 72.3061 18.0028C74.7896 19.379 77.66 19.8493 79.3808 20.0098C83.0513 20.3532 86.4219 18.8178 88.1751 16.0046C90.1186 12.8878 89.3173 8.45959 86.351 5.92385H86.3523Z" fill="url(#paint2_linear_2117_31)"/>
<path d="M33.0275 4.48999C27.4198 4.48999 22.8584 9.987 22.8584 16.7444C22.8584 17.1749 22.8771 17.6092 22.9144 18.0347C22.943 18.3657 23.0998 18.6668 23.3548 18.8808C23.6099 19.0948 23.9322 19.1956 24.2619 19.1669C24.5929 19.1383 24.8927 18.9828 25.1067 18.7277C25.3207 18.4739 25.4228 18.1504 25.3941 17.8194C25.363 17.4648 25.3481 17.1028 25.3481 16.7444C25.3481 11.3594 28.7934 6.97845 33.0288 6.97845C37.2642 6.97845 40.7094 11.3594 40.7094 16.7444C40.7094 22.1295 37.2642 26.5104 33.0288 26.5104C31.262 26.5104 29.5337 25.7215 28.1638 24.2907C27.6898 23.7955 26.8997 23.7781 26.4045 24.2521C25.9093 24.7262 25.8918 25.5163 26.3659 26.0115C28.2099 27.9388 30.5764 28.9989 33.0288 28.9989C38.6365 28.9989 43.1979 23.5018 43.1979 16.7444C43.1979 9.987 38.6365 4.48999 33.0288 4.48999H33.0275Z" fill="url(#paint3_linear_2117_31)"/>
<path d="M21.9941 25.5548C21.6644 25.3756 21.2923 25.3918 20.9489 25.6021C18.5264 27.084 15.8127 25.3731 13.6328 23.997L13.4674 23.8925C12.6175 23.3575 11.7702 22.8436 10.9129 22.4094C11.1245 21.801 11.3123 21.1552 11.4766 20.4734C11.9929 18.3283 12.1895 16.1036 12.3786 13.9511C12.4297 13.3676 12.4832 12.7641 12.5416 12.1718C12.579 11.7948 12.6225 11.383 12.6773 10.945C13.2061 10.8642 13.6988 10.7236 14.1554 10.5195C15.0674 10.1139 15.9135 9.40095 16.7447 8.34335C17.6082 7.24221 18.0275 6.31401 18.1482 5.23775C18.2788 4.06942 17.9516 3.02302 17.2498 2.36606C16.2955 1.47271 14.6718 1.42045 13.5545 2.24662C12.3612 3.12878 11.8337 4.73881 11.4492 5.91461C11.1717 6.75944 10.9503 7.65902 10.7611 8.71662C10.1266 8.62828 9.48954 8.46653 8.90101 8.29731C6.37024 7.57317 4.25504 6.28042 2.9461 4.65794C2.78311 4.45637 2.53675 4.33568 2.25182 4.31951C1.91961 4.30084 1.57496 4.42278 1.35099 4.64176C0.929197 5.05485 0.922976 5.7006 1.33606 6.21198C2.55666 7.72497 4.41803 8.98786 6.86669 9.96458C8.1582 10.4797 9.34894 10.8069 10.4352 10.9463C10.3257 11.8782 10.2435 12.8176 10.1652 13.7334C10.0171 15.4342 9.86529 17.1936 9.53184 18.8957C9.34147 19.8674 9.11129 20.7521 8.84004 21.5534C7.76876 21.2249 6.66637 21.0805 5.50798 21.2249C3.87679 21.4289 2.26924 22.4206 1.50777 23.6922C0.934174 24.6515 0.844589 25.7128 1.24897 26.7617C1.71555 27.9723 2.84532 28.7574 4.27121 28.862C4.36329 28.8682 4.45536 28.8719 4.54619 28.8719C5.92231 28.8719 7.05954 28.1154 7.78867 27.4572C8.66212 26.6684 9.41488 25.6655 10.0407 24.4574C10.8321 24.873 11.5848 25.3483 12.2629 25.7763C12.4135 25.8708 12.5603 25.9642 12.7034 26.0537C15.5875 27.8579 18.9582 29.4443 22.0874 27.5294C22.4346 27.3166 22.6287 26.972 22.6187 26.5838C22.6075 26.1632 22.3574 25.7489 21.9966 25.5523L21.9941 25.5548ZM15.0077 6.95106C14.3644 7.76603 13.7374 8.28612 13.0667 8.55238C13.119 8.30229 13.1762 8.05096 13.2384 7.80087C13.4051 7.13147 13.6005 6.49442 13.8207 5.90715L13.8518 5.82503C14.0646 5.25268 14.3072 4.60444 14.7215 4.1926C14.9119 4.00347 15.1284 3.90269 15.3312 3.90269C15.3959 3.90269 15.4581 3.91264 15.5191 3.9338C15.7455 4.01343 15.8961 4.23614 15.9309 4.54596C16.0404 5.50526 15.4967 6.33516 15.009 6.9523L15.0077 6.95106ZM6.2172 25.8634C5.56895 26.4469 4.32472 27.0466 3.55827 26.3088C3.31066 26.0699 3.20366 25.7788 3.24223 25.4441C3.31191 24.8307 3.84195 24.216 4.32845 23.9249C4.99038 23.5292 5.68715 23.365 6.39637 23.365C6.91397 23.365 7.43779 23.452 7.96037 23.5989C7.46641 24.5096 6.8866 25.2612 6.2172 25.8634Z" fill="url(#paint4_linear_2117_31)"/>
<path d="M62.1706 5.84232C61.9044 5.64324 61.5771 5.55988 61.2474 5.60716C60.9189 5.65444 60.6278 5.82739 60.4287 6.09366C60.2296 6.35992 60.1463 6.68715 60.1935 7.01688C60.2408 7.34535 60.4138 7.6365 60.68 7.83558C63.1548 9.68824 64.6317 12.9033 64.6317 16.4382C64.6317 21.9924 60.9401 26.5115 56.4036 26.5115C51.8671 26.5115 48.1755 21.9924 48.1755 16.4382C48.1755 12.9033 49.6524 9.68824 52.1272 7.83558C52.3934 7.6365 52.5664 7.34535 52.6137 7.01688C52.6609 6.6884 52.5776 6.35992 52.3785 6.09366C51.9679 5.54371 51.1865 5.43172 50.6366 5.84356C47.5372 8.16281 45.687 12.1244 45.687 16.4382C45.687 23.3648 50.4947 28.9999 56.4036 28.9999C62.3125 28.9999 67.1202 23.3648 67.1202 16.4382C67.1202 12.1232 65.27 8.16281 62.1706 5.84356V5.84232Z" stroke="url(#paint5_linear_2117_31)" mask="url(#path-1-outside-1_2117_31)"/>
<path d="M107.672 14.1747C107.514 13.9284 107.285 13.7704 107.028 13.7318C103.242 13.1545 99.0353 12.9056 94.1965 12.9716C94.3471 10.7755 94.1753 8.5558 93.6677 6.3983C97.1043 6.2913 101.382 5.53605 104.628 2.91694C104.83 2.75395 104.95 2.50759 104.967 2.22142C104.987 1.88921 104.862 1.54456 104.644 1.3206C104.231 0.898801 103.585 0.89258 103.074 1.30566C100.006 3.78044 95.4731 4.22836 92.2082 4.1674C91.8648 4.16491 91.5289 4.33039 91.3099 4.62154C91.0921 4.91145 91.0249 5.26356 91.1257 5.5908C92.8801 11.272 91.9507 17.6238 88.6397 22.5808C88.4257 22.9018 88.4158 23.3099 88.6136 23.6707C88.8214 24.0515 89.2021 24.2829 89.6053 24.2754C92.1099 24.2244 94.7079 24.5703 97.3258 25.2982C100.232 26.1057 102.492 27.1732 104.231 28.5605C104.485 28.7621 104.766 28.8629 105.039 28.8629C105.311 28.8629 105.584 28.7571 105.798 28.5481C106.015 28.3341 106.141 27.9932 106.124 27.6585C106.109 27.3648 105.988 27.1123 105.784 26.9493C103.727 25.3081 101.216 24.0801 98.1084 23.1917C95.9086 22.5634 93.7162 22.1876 91.5649 22.0706C92.7283 19.9318 93.5209 17.6076 93.929 15.2174C95.6373 15.1975 97.4912 15.2386 99.8279 15.3468C102.193 15.4563 104.327 15.5733 106.477 15.9017C106.557 15.9142 106.634 15.9192 106.71 15.9192C107.254 15.9192 107.69 15.6156 107.833 15.1166C107.918 14.8217 107.857 14.4609 107.674 14.176L107.672 14.1747Z" stroke="url(#paint6_linear_2117_31)" mask="url(#path-1-outside-1_2117_31)"/>
<path d="M86.3523 5.92385C83.656 3.61953 79.4642 2.77345 75.6717 3.7676C72.0722 4.71197 69.4618 7.40946 69.0213 10.642C68.9317 11.3014 69.2403 11.8327 69.8064 11.9945C70.1013 12.0791 70.4758 12.0131 70.7608 11.8277C71.0034 11.6685 71.1564 11.442 71.1913 11.1894C71.5571 8.49941 73.3363 7.13946 74.7647 6.47131C77.5705 5.15989 81.4973 5.39754 84.1027 7.03495C86.2876 8.40733 87.8541 11.5664 86.5737 14.2764C85.4937 16.5645 82.9306 17.9543 80.044 17.8187C78.6666 17.754 77.1735 17.4591 75.6033 16.9415C74.5295 16.5882 72.9705 15.9971 71.8395 14.9582C71.4973 14.6434 70.9237 14.5787 70.4771 14.8027C70.0951 14.9943 69.891 15.3576 69.9346 15.7744C70.3452 19.7709 69.8151 23.6952 68.3569 27.4391C68.2623 27.6817 68.281 27.9567 68.4091 28.2143C68.556 28.5116 68.8334 28.7493 69.132 28.8339C69.2328 28.8625 69.3336 28.8762 69.4319 28.8762C69.891 28.8762 70.3091 28.5738 70.5044 28.0699C71.7487 24.8735 72.3608 21.4332 72.3061 18.0028C74.7896 19.379 77.66 19.8493 79.3808 20.0098C83.0513 20.3532 86.4219 18.8178 88.1751 16.0046C90.1186 12.8878 89.3173 8.45959 86.351 5.92385H86.3523Z" stroke="url(#paint7_linear_2117_31)" mask="url(#path-1-outside-1_2117_31)"/>
<path d="M33.0275 4.48999C27.4198 4.48999 22.8584 9.987 22.8584 16.7444C22.8584 17.1749 22.8771 17.6092 22.9144 18.0347C22.943 18.3657 23.0998 18.6668 23.3548 18.8808C23.6099 19.0948 23.9322 19.1956 24.2619 19.1669C24.5929 19.1383 24.8927 18.9828 25.1067 18.7277C25.3207 18.4739 25.4228 18.1504 25.3941 17.8194C25.363 17.4648 25.3481 17.1028 25.3481 16.7444C25.3481 11.3594 28.7934 6.97845 33.0288 6.97845C37.2642 6.97845 40.7094 11.3594 40.7094 16.7444C40.7094 22.1295 37.2642 26.5104 33.0288 26.5104C31.262 26.5104 29.5337 25.7215 28.1638 24.2907C27.6898 23.7955 26.8997 23.7781 26.4045 24.2521C25.9093 24.7262 25.8918 25.5163 26.3659 26.0115C28.2099 27.9388 30.5764 28.9989 33.0288 28.9989C38.6365 28.9989 43.1979 23.5018 43.1979 16.7444C43.1979 9.987 38.6365 4.48999 33.0288 4.48999H33.0275Z" stroke="url(#paint8_linear_2117_31)" mask="url(#path-1-outside-1_2117_31)"/>
<path d="M21.9941 25.5548C21.6644 25.3756 21.2923 25.3918 20.9489 25.6021C18.5264 27.084 15.8127 25.3731 13.6328 23.997L13.4674 23.8925C12.6175 23.3575 11.7702 22.8436 10.9129 22.4094C11.1245 21.801 11.3123 21.1552 11.4766 20.4734C11.9929 18.3283 12.1895 16.1036 12.3786 13.9511C12.4297 13.3676 12.4832 12.7641 12.5416 12.1718C12.579 11.7948 12.6225 11.383 12.6773 10.945C13.2061 10.8642 13.6988 10.7236 14.1554 10.5195C15.0674 10.1139 15.9135 9.40095 16.7447 8.34335C17.6082 7.24221 18.0275 6.31401 18.1482 5.23775C18.2788 4.06942 17.9516 3.02302 17.2498 2.36606C16.2955 1.47271 14.6718 1.42045 13.5545 2.24662C12.3612 3.12878 11.8337 4.73881 11.4492 5.91461C11.1717 6.75944 10.9503 7.65902 10.7611 8.71662C10.1266 8.62828 9.48954 8.46653 8.90101 8.29731C6.37024 7.57317 4.25504 6.28042 2.9461 4.65794C2.78311 4.45637 2.53675 4.33568 2.25182 4.31951C1.91961 4.30084 1.57496 4.42278 1.35099 4.64176C0.929197 5.05485 0.922976 5.7006 1.33606 6.21198C2.55666 7.72497 4.41803 8.98786 6.86669 9.96458C8.1582 10.4797 9.34894 10.8069 10.4352 10.9463C10.3257 11.8782 10.2435 12.8176 10.1652 13.7334C10.0171 15.4342 9.86529 17.1936 9.53184 18.8957C9.34147 19.8674 9.11129 20.7521 8.84004 21.5534C7.76876 21.2249 6.66637 21.0805 5.50798 21.2249C3.87679 21.4289 2.26924 22.4206 1.50777 23.6922C0.934174 24.6515 0.844589 25.7128 1.24897 26.7617C1.71555 27.9723 2.84532 28.7574 4.27121 28.862C4.36329 28.8682 4.45536 28.8719 4.54619 28.8719C5.92231 28.8719 7.05954 28.1154 7.78867 27.4572C8.66212 26.6684 9.41488 25.6655 10.0407 24.4574C10.8321 24.873 11.5848 25.3483 12.2629 25.7763C12.4135 25.8708 12.5603 25.9642 12.7034 26.0537C15.5875 27.8579 18.9582 29.4443 22.0874 27.5294C22.4346 27.3166 22.6287 26.972 22.6187 26.5838C22.6075 26.1632 22.3574 25.7489 21.9966 25.5523L21.9941 25.5548ZM15.0077 6.95106C14.3644 7.76603 13.7374 8.28612 13.0667 8.55238C13.119 8.30229 13.1762 8.05096 13.2384 7.80087C13.4051 7.13147 13.6005 6.49442 13.8207 5.90715L13.8518 5.82503C14.0646 5.25268 14.3072 4.60444 14.7215 4.1926C14.9119 4.00347 15.1284 3.90269 15.3312 3.90269C15.3959 3.90269 15.4581 3.91264 15.5191 3.9338C15.7455 4.01343 15.8961 4.23614 15.9309 4.54596C16.0404 5.50526 15.4967 6.33516 15.009 6.9523L15.0077 6.95106ZM6.2172 25.8634C5.56895 26.4469 4.32472 27.0466 3.55827 26.3088C3.31066 26.0699 3.20366 25.7788 3.24223 25.4441C3.31191 24.8307 3.84195 24.216 4.32845 23.9249C4.99038 23.5292 5.68715 23.365 6.39637 23.365C6.91397 23.365 7.43779 23.452 7.96037 23.5989C7.46641 24.5096 6.8866 25.2612 6.2172 25.8634Z" stroke="url(#paint9_linear_2117_31)" mask="url(#path-1-outside-1_2117_31)"/>
<defs>
<linearGradient id="paint0_linear_2117_31" x1="54.4354" y1="1" x2="54.4354" y2="28.9999" gradientUnits="userSpaceOnUse">
<stop stop-color="#997CEC"/>
<stop offset="1" stop-color="#4314C8"/>
</linearGradient>
<linearGradient id="paint1_linear_2117_31" x1="54.4354" y1="1" x2="54.4354" y2="28.9999" gradientUnits="userSpaceOnUse">
<stop stop-color="#997CEC"/>
<stop offset="1" stop-color="#4314C8"/>
</linearGradient>
<linearGradient id="paint2_linear_2117_31" x1="54.4354" y1="1" x2="54.4354" y2="28.9999" gradientUnits="userSpaceOnUse">
<stop stop-color="#997CEC"/>
<stop offset="1" stop-color="#4314C8"/>
</linearGradient>
<linearGradient id="paint3_linear_2117_31" x1="54.4354" y1="1" x2="54.4354" y2="28.9999" gradientUnits="userSpaceOnUse">
<stop stop-color="#997CEC"/>
<stop offset="1" stop-color="#4314C8"/>
</linearGradient>
<linearGradient id="paint4_linear_2117_31" x1="54.4354" y1="1" x2="54.4354" y2="28.9999" gradientUnits="userSpaceOnUse">
<stop stop-color="#997CEC"/>
<stop offset="1" stop-color="#4314C8"/>
</linearGradient>
<linearGradient id="paint5_linear_2117_31" x1="54.4354" y1="1" x2="54.4354" y2="28.9999" gradientUnits="userSpaceOnUse">
<stop stop-color="#997CEC"/>
<stop offset="1" stop-color="#4314C8"/>
</linearGradient>
<linearGradient id="paint6_linear_2117_31" x1="54.4354" y1="1" x2="54.4354" y2="28.9999" gradientUnits="userSpaceOnUse">
<stop stop-color="#997CEC"/>
<stop offset="1" stop-color="#4314C8"/>
</linearGradient>
<linearGradient id="paint7_linear_2117_31" x1="54.4354" y1="1" x2="54.4354" y2="28.9999" gradientUnits="userSpaceOnUse">
<stop stop-color="#997CEC"/>
<stop offset="1" stop-color="#4314C8"/>
</linearGradient>
<linearGradient id="paint8_linear_2117_31" x1="54.4354" y1="1" x2="54.4354" y2="28.9999" gradientUnits="userSpaceOnUse">
<stop stop-color="#997CEC"/>
<stop offset="1" stop-color="#4314C8"/>
</linearGradient>
<linearGradient id="paint9_linear_2117_31" x1="54.4354" y1="1" x2="54.4354" y2="28.9999" gradientUnits="userSpaceOnUse">
<stop stop-color="#997CEC"/>
<stop offset="1" stop-color="#4314C8"/>
</linearGradient>
</defs>
</svg>
