<svg width="108" height="30" viewBox="0 0 108 30" fill="none" xmlns="http://www.w3.org/2000/svg">
<mask id="path-1-outside-1_2117_34" maskUnits="userSpaceOnUse" x="-0.555664" y="0.133301" width="109" height="30" fill="black">
<rect fill="white" x="-0.555664" y="0.133301" width="109" height="30"/>
<path d="M61.6151 5.97563C61.3488 5.77655 61.0216 5.69319 60.6919 5.74047C60.3634 5.78775 60.0722 5.9607 59.8732 6.22697C59.6741 6.49323 59.5907 6.82047 59.638 7.15019C59.6853 7.47866 59.8582 7.76982 60.1245 7.96889C62.5993 9.82156 64.0762 13.0367 64.0762 16.5715C64.0762 22.1258 60.3845 26.6448 55.848 26.6448C51.3116 26.6448 47.6199 22.1258 47.6199 16.5715C47.6199 13.0367 49.0968 9.82156 51.5716 7.96889C51.8379 7.76982 52.0108 7.47866 52.0581 7.15019C52.1054 6.82171 52.022 6.49323 51.8229 6.22697C51.4123 5.67701 50.631 5.56503 50.081 5.97688C46.9816 8.29613 45.1314 12.2578 45.1314 16.5715C45.1314 23.4982 49.9392 29.1333 55.848 29.1333C61.7569 29.1333 66.5647 23.4982 66.5647 16.5715C66.5647 12.2565 64.7145 8.29613 61.6151 5.97688V5.97563Z"/>
<path d="M107.116 14.3081C106.958 14.0617 106.729 13.9037 106.473 13.8651C102.687 13.2878 98.4799 13.039 93.641 13.1049C93.7916 10.9088 93.6199 8.68911 93.1122 6.53161C96.5488 6.42461 100.826 5.66936 104.073 3.05025C104.274 2.88725 104.395 2.6409 104.411 2.35472C104.431 2.02251 104.307 1.67786 104.089 1.4539C103.676 1.0321 103.03 1.02588 102.519 1.43897C99.4503 3.91375 94.9176 4.36167 91.6527 4.3007C91.3093 4.29821 90.9734 4.4637 90.7544 4.75485C90.5366 5.04475 90.4695 5.39687 90.5702 5.72411C92.3246 11.4053 91.3952 17.7571 88.0842 22.7141C87.8702 23.0351 87.8603 23.4432 88.0581 23.8041C88.2659 24.1848 88.6466 24.4162 89.0498 24.4088C91.5544 24.3577 94.1524 24.7036 96.7703 25.4315C99.6768 26.239 101.936 27.3066 103.676 28.6939C103.93 28.8955 104.211 28.9962 104.483 28.9962C104.756 28.9962 105.028 28.8905 105.242 28.6815C105.46 28.4674 105.586 28.1265 105.568 27.7918C105.553 27.4982 105.433 27.2456 105.229 27.0826C103.172 25.4415 100.661 24.2134 97.5529 23.325C95.3531 22.6967 93.1607 22.3209 91.0094 22.204C92.1728 20.0651 92.9654 17.7409 93.3735 15.3507C95.0818 15.3308 96.9358 15.3719 99.2724 15.4801C101.638 15.5896 103.772 15.7066 105.922 16.0351C106.001 16.0475 106.078 16.0525 106.154 16.0525C106.698 16.0525 107.135 15.7489 107.278 15.25C107.362 14.9551 107.301 14.5942 107.119 14.3093L107.116 14.3081Z"/>
<path d="M85.7968 6.05716C83.1005 3.75284 78.9087 2.90676 75.1162 3.9009C71.5166 4.84527 68.9062 7.54277 68.4658 10.7753C68.3762 11.4347 68.6848 11.966 69.2509 12.1278C69.5458 12.2124 69.9203 12.1464 70.2052 11.961C70.4478 11.8018 70.6009 11.5753 70.6357 11.3228C71.0015 8.63272 72.7808 7.27277 74.2092 6.60462C77.0149 5.2932 80.9417 5.53085 83.5472 7.16826C85.7321 8.54065 87.2986 11.6998 86.0182 14.4097C84.9382 16.6978 82.3751 18.0877 79.4885 17.952C78.1111 17.8873 76.618 17.5924 75.0478 17.0748C73.974 16.7215 72.415 16.1305 71.284 15.0915C70.9418 14.7767 70.3682 14.712 69.9215 14.936C69.5396 15.1276 69.3355 15.4909 69.3791 15.9078C69.7896 19.9042 69.2596 23.8285 67.8014 27.5724C67.7068 27.8151 67.7255 28.09 67.8536 28.3476C68.0004 28.645 68.2779 28.8826 68.5765 28.9672C68.6773 28.9958 68.7781 29.0095 68.8764 29.0095C69.3355 29.0095 69.7536 28.7072 69.9489 28.2033C71.1931 25.0068 71.8053 21.5665 71.7506 18.1362C74.2341 19.5123 77.1045 19.9826 78.8253 20.1431C82.4958 20.4865 85.8664 18.9511 87.6196 16.1379C89.5631 13.0211 88.7618 8.59291 85.7955 6.05716H85.7968Z"/>
<path d="M32.4719 4.6233C26.8642 4.6233 22.3028 10.1203 22.3028 16.8778C22.3028 17.3083 22.3214 17.7425 22.3588 18.168C22.3874 18.499 22.5442 18.8001 22.7992 19.0141C23.0543 19.2281 23.3766 19.3289 23.7063 19.3003C24.0372 19.2717 24.3371 19.1161 24.5511 18.8611C24.7651 18.6072 24.8671 18.2837 24.8385 17.9528C24.8074 17.5982 24.7925 17.2361 24.7925 16.8778C24.7925 11.4927 28.2378 7.11176 32.4732 7.11176C36.7086 7.11176 40.1539 11.4927 40.1539 16.8778C40.1539 22.2628 36.7086 26.6437 32.4732 26.6437C30.7064 26.6437 28.9781 25.8549 27.6082 24.424C27.1342 23.9288 26.3441 23.9114 25.8489 24.3855C25.3536 24.8595 25.3362 25.6496 25.8103 26.1448C27.6542 28.0721 30.0208 29.1322 32.4732 29.1322C38.081 29.1322 42.6423 23.6352 42.6423 16.8778C42.6423 10.1203 38.081 4.6233 32.4732 4.6233H32.4719Z"/>
<path d="M21.4385 25.6881C21.1088 25.509 20.7367 25.5252 20.3933 25.7354C17.9708 27.2173 15.2571 25.5065 13.0772 24.1304L12.9117 24.0258C12.0619 23.4908 11.2146 22.977 10.3573 22.5427C10.5688 21.9343 10.7567 21.2885 10.9209 20.6067C11.4373 18.4616 11.6339 16.2369 11.823 14.0844C11.874 13.5009 11.9275 12.8974 11.986 12.3052C12.0233 11.9282 12.0669 11.5163 12.1216 11.0784C12.6504 10.9975 13.1431 10.8569 13.5998 10.6528C14.5118 10.2472 15.3579 9.53426 16.189 8.47666C17.0525 7.37552 17.4718 6.44732 17.5925 5.37106C17.7232 4.20272 17.3959 3.15632 16.6942 2.49937C15.7399 1.60601 14.1161 1.55375 12.9988 2.37992C11.8056 3.26208 11.278 4.87212 10.8936 6.04792C10.6161 6.89276 10.3946 7.79234 10.2055 8.84993C9.57094 8.76159 8.93389 8.59984 8.34536 8.43063C5.81458 7.70648 3.69938 6.41373 2.39044 4.79125C2.22745 4.58968 1.98109 4.46899 1.69616 4.45281C1.36395 4.43415 1.01929 4.55609 0.79533 4.77507C0.373533 5.18816 0.367312 5.83391 0.780399 6.34529C2.001 7.85828 3.86238 9.12118 6.31103 10.0979C7.60255 10.613 8.79329 10.9402 9.87951 11.0796C9.77001 12.0115 9.68789 12.9509 9.60951 13.8667C9.46144 15.5676 9.30965 17.3269 8.97619 19.029C8.78582 20.0008 8.55564 20.8854 8.2844 21.6867C7.21311 21.3582 6.11071 21.2139 4.95233 21.3582C3.32113 21.5623 1.71358 22.5539 0.952104 23.8255C0.37851 24.7848 0.288925 25.8462 0.693302 26.8951C1.15989 28.1057 2.28966 28.8908 3.71556 28.9953C3.80763 29.0015 3.8997 29.0053 3.99053 29.0053C5.36666 29.0053 6.50389 28.2488 7.23302 27.5906C8.10647 26.8017 8.85923 25.7989 9.48508 24.5907C10.2764 25.0063 11.0292 25.4816 11.7073 25.9096C11.8578 26.0042 12.0047 26.0975 12.1478 26.1871C15.0319 27.9912 18.4025 29.5776 21.5318 27.6627C21.8789 27.45 22.073 27.1053 22.0631 26.7171C22.0519 26.2966 21.8018 25.8822 21.441 25.6857L21.4385 25.6881ZM14.4521 7.08437C13.8088 7.89934 13.1817 8.41943 12.5111 8.6857C12.5633 8.4356 12.6206 8.18427 12.6828 7.93418C12.8495 7.26478 13.0448 6.62773 13.2651 6.04046L13.2962 5.95834C13.5089 5.38599 13.7516 4.73774 14.1659 4.3259C14.3563 4.13678 14.5728 4.036 14.7756 4.036C14.8403 4.036 14.9025 4.04595 14.9635 4.0671C15.1899 4.14673 15.3405 4.36945 15.3753 4.67926C15.4848 5.63857 14.9411 6.46847 14.4533 7.08561L14.4521 7.08437ZM5.66154 25.9967C5.0133 26.5803 3.76906 27.18 3.00261 26.4422C2.755 26.2033 2.648 25.9121 2.68657 25.5774C2.75625 24.964 3.28629 24.3494 3.77279 24.0582C4.43472 23.6625 5.1315 23.4983 5.84071 23.4983C6.35832 23.4983 6.88214 23.5854 7.40472 23.7322C6.91076 24.643 6.33094 25.3945 5.66154 25.9967Z"/>
</mask>
<path d="M61.6151 5.97563C61.3488 5.77655 61.0216 5.69319 60.6919 5.74047C60.3634 5.78775 60.0722 5.9607 59.8732 6.22697C59.6741 6.49323 59.5907 6.82047 59.638 7.15019C59.6853 7.47866 59.8582 7.76982 60.1245 7.96889C62.5993 9.82156 64.0762 13.0367 64.0762 16.5715C64.0762 22.1258 60.3845 26.6448 55.848 26.6448C51.3116 26.6448 47.6199 22.1258 47.6199 16.5715C47.6199 13.0367 49.0968 9.82156 51.5716 7.96889C51.8379 7.76982 52.0108 7.47866 52.0581 7.15019C52.1054 6.82171 52.022 6.49323 51.8229 6.22697C51.4123 5.67701 50.631 5.56503 50.081 5.97688C46.9816 8.29613 45.1314 12.2578 45.1314 16.5715C45.1314 23.4982 49.9392 29.1333 55.848 29.1333C61.7569 29.1333 66.5647 23.4982 66.5647 16.5715C66.5647 12.2565 64.7145 8.29613 61.6151 5.97688V5.97563Z" fill="white"/>
<path d="M107.116 14.3081C106.958 14.0617 106.729 13.9037 106.473 13.8651C102.687 13.2878 98.4799 13.039 93.641 13.1049C93.7916 10.9088 93.6199 8.68911 93.1122 6.53161C96.5488 6.42461 100.826 5.66936 104.073 3.05025C104.274 2.88725 104.395 2.6409 104.411 2.35472C104.431 2.02251 104.307 1.67786 104.089 1.4539C103.676 1.0321 103.03 1.02588 102.519 1.43897C99.4503 3.91375 94.9176 4.36167 91.6527 4.3007C91.3093 4.29821 90.9734 4.4637 90.7544 4.75485C90.5366 5.04475 90.4695 5.39687 90.5702 5.72411C92.3246 11.4053 91.3952 17.7571 88.0842 22.7141C87.8702 23.0351 87.8603 23.4432 88.0581 23.8041C88.2659 24.1848 88.6466 24.4162 89.0498 24.4088C91.5544 24.3577 94.1524 24.7036 96.7703 25.4315C99.6768 26.239 101.936 27.3066 103.676 28.6939C103.93 28.8955 104.211 28.9962 104.483 28.9962C104.756 28.9962 105.028 28.8905 105.242 28.6815C105.46 28.4674 105.586 28.1265 105.568 27.7918C105.553 27.4982 105.433 27.2456 105.229 27.0826C103.172 25.4415 100.661 24.2134 97.5529 23.325C95.3531 22.6967 93.1607 22.3209 91.0094 22.204C92.1728 20.0651 92.9654 17.7409 93.3735 15.3507C95.0818 15.3308 96.9358 15.3719 99.2724 15.4801C101.638 15.5896 103.772 15.7066 105.922 16.0351C106.001 16.0475 106.078 16.0525 106.154 16.0525C106.698 16.0525 107.135 15.7489 107.278 15.25C107.362 14.9551 107.301 14.5942 107.119 14.3093L107.116 14.3081Z" fill="white"/>
<path d="M85.7968 6.05716C83.1005 3.75284 78.9087 2.90676 75.1162 3.9009C71.5166 4.84527 68.9062 7.54277 68.4658 10.7753C68.3762 11.4347 68.6848 11.966 69.2509 12.1278C69.5458 12.2124 69.9203 12.1464 70.2052 11.961C70.4478 11.8018 70.6009 11.5753 70.6357 11.3228C71.0015 8.63272 72.7808 7.27277 74.2092 6.60462C77.0149 5.2932 80.9417 5.53085 83.5472 7.16826C85.7321 8.54065 87.2986 11.6998 86.0182 14.4097C84.9382 16.6978 82.3751 18.0877 79.4885 17.952C78.1111 17.8873 76.618 17.5924 75.0478 17.0748C73.974 16.7215 72.415 16.1305 71.284 15.0915C70.9418 14.7767 70.3682 14.712 69.9215 14.936C69.5396 15.1276 69.3355 15.4909 69.3791 15.9078C69.7896 19.9042 69.2596 23.8285 67.8014 27.5724C67.7068 27.8151 67.7255 28.09 67.8536 28.3476C68.0004 28.645 68.2779 28.8826 68.5765 28.9672C68.6773 28.9958 68.7781 29.0095 68.8764 29.0095C69.3355 29.0095 69.7536 28.7072 69.9489 28.2033C71.1931 25.0068 71.8053 21.5665 71.7506 18.1362C74.2341 19.5123 77.1045 19.9826 78.8253 20.1431C82.4958 20.4865 85.8664 18.9511 87.6196 16.1379C89.5631 13.0211 88.7618 8.59291 85.7955 6.05716H85.7968Z" fill="white"/>
<path d="M32.4719 4.6233C26.8642 4.6233 22.3028 10.1203 22.3028 16.8778C22.3028 17.3083 22.3214 17.7425 22.3588 18.168C22.3874 18.499 22.5442 18.8001 22.7992 19.0141C23.0543 19.2281 23.3766 19.3289 23.7063 19.3003C24.0372 19.2717 24.3371 19.1161 24.5511 18.8611C24.7651 18.6072 24.8671 18.2837 24.8385 17.9528C24.8074 17.5982 24.7925 17.2361 24.7925 16.8778C24.7925 11.4927 28.2378 7.11176 32.4732 7.11176C36.7086 7.11176 40.1539 11.4927 40.1539 16.8778C40.1539 22.2628 36.7086 26.6437 32.4732 26.6437C30.7064 26.6437 28.9781 25.8549 27.6082 24.424C27.1342 23.9288 26.3441 23.9114 25.8489 24.3855C25.3536 24.8595 25.3362 25.6496 25.8103 26.1448C27.6542 28.0721 30.0208 29.1322 32.4732 29.1322C38.081 29.1322 42.6423 23.6352 42.6423 16.8778C42.6423 10.1203 38.081 4.6233 32.4732 4.6233H32.4719Z" fill="white"/>
<path d="M21.4385 25.6881C21.1088 25.509 20.7367 25.5252 20.3933 25.7354C17.9708 27.2173 15.2571 25.5065 13.0772 24.1304L12.9117 24.0258C12.0619 23.4908 11.2146 22.977 10.3573 22.5427C10.5688 21.9343 10.7567 21.2885 10.9209 20.6067C11.4373 18.4616 11.6339 16.2369 11.823 14.0844C11.874 13.5009 11.9275 12.8974 11.986 12.3052C12.0233 11.9282 12.0669 11.5163 12.1216 11.0784C12.6504 10.9975 13.1431 10.8569 13.5998 10.6528C14.5118 10.2472 15.3579 9.53426 16.189 8.47666C17.0525 7.37552 17.4718 6.44732 17.5925 5.37106C17.7232 4.20272 17.3959 3.15632 16.6942 2.49937C15.7399 1.60601 14.1161 1.55375 12.9988 2.37992C11.8056 3.26208 11.278 4.87212 10.8936 6.04792C10.6161 6.89276 10.3946 7.79234 10.2055 8.84993C9.57094 8.76159 8.93389 8.59984 8.34536 8.43063C5.81458 7.70648 3.69938 6.41373 2.39044 4.79125C2.22745 4.58968 1.98109 4.46899 1.69616 4.45281C1.36395 4.43415 1.01929 4.55609 0.79533 4.77507C0.373533 5.18816 0.367312 5.83391 0.780399 6.34529C2.001 7.85828 3.86238 9.12118 6.31103 10.0979C7.60255 10.613 8.79329 10.9402 9.87951 11.0796C9.77001 12.0115 9.68789 12.9509 9.60951 13.8667C9.46144 15.5676 9.30965 17.3269 8.97619 19.029C8.78582 20.0008 8.55564 20.8854 8.2844 21.6867C7.21311 21.3582 6.11071 21.2139 4.95233 21.3582C3.32113 21.5623 1.71358 22.5539 0.952104 23.8255C0.37851 24.7848 0.288925 25.8462 0.693302 26.8951C1.15989 28.1057 2.28966 28.8908 3.71556 28.9953C3.80763 29.0015 3.8997 29.0053 3.99053 29.0053C5.36666 29.0053 6.50389 28.2488 7.23302 27.5906C8.10647 26.8017 8.85923 25.7989 9.48508 24.5907C10.2764 25.0063 11.0292 25.4816 11.7073 25.9096C11.8578 26.0042 12.0047 26.0975 12.1478 26.1871C15.0319 27.9912 18.4025 29.5776 21.5318 27.6627C21.8789 27.45 22.073 27.1053 22.0631 26.7171C22.0519 26.2966 21.8018 25.8822 21.441 25.6857L21.4385 25.6881ZM14.4521 7.08437C13.8088 7.89934 13.1817 8.41943 12.5111 8.6857C12.5633 8.4356 12.6206 8.18427 12.6828 7.93418C12.8495 7.26478 13.0448 6.62773 13.2651 6.04046L13.2962 5.95834C13.5089 5.38599 13.7516 4.73774 14.1659 4.3259C14.3563 4.13678 14.5728 4.036 14.7756 4.036C14.8403 4.036 14.9025 4.04595 14.9635 4.0671C15.1899 4.14673 15.3405 4.36945 15.3753 4.67926C15.4848 5.63857 14.9411 6.46847 14.4533 7.08561L14.4521 7.08437ZM5.66154 25.9967C5.0133 26.5803 3.76906 27.18 3.00261 26.4422C2.755 26.2033 2.648 25.9121 2.68657 25.5774C2.75625 24.964 3.28629 24.3494 3.77279 24.0582C4.43472 23.6625 5.1315 23.4983 5.84071 23.4983C6.35832 23.4983 6.88214 23.5854 7.40472 23.7322C6.91076 24.643 6.33094 25.3945 5.66154 25.9967Z" fill="white"/>
<path d="M61.6151 5.97563C61.3488 5.77655 61.0216 5.69319 60.6919 5.74047C60.3634 5.78775 60.0722 5.9607 59.8732 6.22697C59.6741 6.49323 59.5907 6.82047 59.638 7.15019C59.6853 7.47866 59.8582 7.76982 60.1245 7.96889C62.5993 9.82156 64.0762 13.0367 64.0762 16.5715C64.0762 22.1258 60.3845 26.6448 55.848 26.6448C51.3116 26.6448 47.6199 22.1258 47.6199 16.5715C47.6199 13.0367 49.0968 9.82156 51.5716 7.96889C51.8379 7.76982 52.0108 7.47866 52.0581 7.15019C52.1054 6.82171 52.022 6.49323 51.8229 6.22697C51.4123 5.67701 50.631 5.56503 50.081 5.97688C46.9816 8.29613 45.1314 12.2578 45.1314 16.5715C45.1314 23.4982 49.9392 29.1333 55.848 29.1333C61.7569 29.1333 66.5647 23.4982 66.5647 16.5715C66.5647 12.2565 64.7145 8.29613 61.6151 5.97688V5.97563Z" stroke="white" mask="url(#path-1-outside-1_2117_34)"/>
<path d="M107.116 14.3081C106.958 14.0617 106.729 13.9037 106.473 13.8651C102.687 13.2878 98.4799 13.039 93.641 13.1049C93.7916 10.9088 93.6199 8.68911 93.1122 6.53161C96.5488 6.42461 100.826 5.66936 104.073 3.05025C104.274 2.88725 104.395 2.6409 104.411 2.35472C104.431 2.02251 104.307 1.67786 104.089 1.4539C103.676 1.0321 103.03 1.02588 102.519 1.43897C99.4503 3.91375 94.9176 4.36167 91.6527 4.3007C91.3093 4.29821 90.9734 4.4637 90.7544 4.75485C90.5366 5.04475 90.4695 5.39687 90.5702 5.72411C92.3246 11.4053 91.3952 17.7571 88.0842 22.7141C87.8702 23.0351 87.8603 23.4432 88.0581 23.8041C88.2659 24.1848 88.6466 24.4162 89.0498 24.4088C91.5544 24.3577 94.1524 24.7036 96.7703 25.4315C99.6768 26.239 101.936 27.3066 103.676 28.6939C103.93 28.8955 104.211 28.9962 104.483 28.9962C104.756 28.9962 105.028 28.8905 105.242 28.6815C105.46 28.4674 105.586 28.1265 105.568 27.7918C105.553 27.4982 105.433 27.2456 105.229 27.0826C103.172 25.4415 100.661 24.2134 97.5529 23.325C95.3531 22.6967 93.1607 22.3209 91.0094 22.204C92.1728 20.0651 92.9654 17.7409 93.3735 15.3507C95.0818 15.3308 96.9358 15.3719 99.2724 15.4801C101.638 15.5896 103.772 15.7066 105.922 16.0351C106.001 16.0475 106.078 16.0525 106.154 16.0525C106.698 16.0525 107.135 15.7489 107.278 15.25C107.362 14.9551 107.301 14.5942 107.119 14.3093L107.116 14.3081Z" stroke="white" mask="url(#path-1-outside-1_2117_34)"/>
<path d="M85.7968 6.05716C83.1005 3.75284 78.9087 2.90676 75.1162 3.9009C71.5166 4.84527 68.9062 7.54277 68.4658 10.7753C68.3762 11.4347 68.6848 11.966 69.2509 12.1278C69.5458 12.2124 69.9203 12.1464 70.2052 11.961C70.4478 11.8018 70.6009 11.5753 70.6357 11.3228C71.0015 8.63272 72.7808 7.27277 74.2092 6.60462C77.0149 5.2932 80.9417 5.53085 83.5472 7.16826C85.7321 8.54065 87.2986 11.6998 86.0182 14.4097C84.9382 16.6978 82.3751 18.0877 79.4885 17.952C78.1111 17.8873 76.618 17.5924 75.0478 17.0748C73.974 16.7215 72.415 16.1305 71.284 15.0915C70.9418 14.7767 70.3682 14.712 69.9215 14.936C69.5396 15.1276 69.3355 15.4909 69.3791 15.9078C69.7896 19.9042 69.2596 23.8285 67.8014 27.5724C67.7068 27.8151 67.7255 28.09 67.8536 28.3476C68.0004 28.645 68.2779 28.8826 68.5765 28.9672C68.6773 28.9958 68.7781 29.0095 68.8764 29.0095C69.3355 29.0095 69.7536 28.7072 69.9489 28.2033C71.1931 25.0068 71.8053 21.5665 71.7506 18.1362C74.2341 19.5123 77.1045 19.9826 78.8253 20.1431C82.4958 20.4865 85.8664 18.9511 87.6196 16.1379C89.5631 13.0211 88.7618 8.59291 85.7955 6.05716H85.7968Z" stroke="white" mask="url(#path-1-outside-1_2117_34)"/>
<path d="M32.4719 4.6233C26.8642 4.6233 22.3028 10.1203 22.3028 16.8778C22.3028 17.3083 22.3214 17.7425 22.3588 18.168C22.3874 18.499 22.5442 18.8001 22.7992 19.0141C23.0543 19.2281 23.3766 19.3289 23.7063 19.3003C24.0372 19.2717 24.3371 19.1161 24.5511 18.8611C24.7651 18.6072 24.8671 18.2837 24.8385 17.9528C24.8074 17.5982 24.7925 17.2361 24.7925 16.8778C24.7925 11.4927 28.2378 7.11176 32.4732 7.11176C36.7086 7.11176 40.1539 11.4927 40.1539 16.8778C40.1539 22.2628 36.7086 26.6437 32.4732 26.6437C30.7064 26.6437 28.9781 25.8549 27.6082 24.424C27.1342 23.9288 26.3441 23.9114 25.8489 24.3855C25.3536 24.8595 25.3362 25.6496 25.8103 26.1448C27.6542 28.0721 30.0208 29.1322 32.4732 29.1322C38.081 29.1322 42.6423 23.6352 42.6423 16.8778C42.6423 10.1203 38.081 4.6233 32.4732 4.6233H32.4719Z" stroke="white" mask="url(#path-1-outside-1_2117_34)"/>
<path d="M21.4385 25.6881C21.1088 25.509 20.7367 25.5252 20.3933 25.7354C17.9708 27.2173 15.2571 25.5065 13.0772 24.1304L12.9117 24.0258C12.0619 23.4908 11.2146 22.977 10.3573 22.5427C10.5688 21.9343 10.7567 21.2885 10.9209 20.6067C11.4373 18.4616 11.6339 16.2369 11.823 14.0844C11.874 13.5009 11.9275 12.8974 11.986 12.3052C12.0233 11.9282 12.0669 11.5163 12.1216 11.0784C12.6504 10.9975 13.1431 10.8569 13.5998 10.6528C14.5118 10.2472 15.3579 9.53426 16.189 8.47666C17.0525 7.37552 17.4718 6.44732 17.5925 5.37106C17.7232 4.20272 17.3959 3.15632 16.6942 2.49937C15.7399 1.60601 14.1161 1.55375 12.9988 2.37992C11.8056 3.26208 11.278 4.87212 10.8936 6.04792C10.6161 6.89276 10.3946 7.79234 10.2055 8.84993C9.57094 8.76159 8.93389 8.59984 8.34536 8.43063C5.81458 7.70648 3.69938 6.41373 2.39044 4.79125C2.22745 4.58968 1.98109 4.46899 1.69616 4.45281C1.36395 4.43415 1.01929 4.55609 0.79533 4.77507C0.373533 5.18816 0.367312 5.83391 0.780399 6.34529C2.001 7.85828 3.86238 9.12118 6.31103 10.0979C7.60255 10.613 8.79329 10.9402 9.87951 11.0796C9.77001 12.0115 9.68789 12.9509 9.60951 13.8667C9.46144 15.5676 9.30965 17.3269 8.97619 19.029C8.78582 20.0008 8.55564 20.8854 8.2844 21.6867C7.21311 21.3582 6.11071 21.2139 4.95233 21.3582C3.32113 21.5623 1.71358 22.5539 0.952104 23.8255C0.37851 24.7848 0.288925 25.8462 0.693302 26.8951C1.15989 28.1057 2.28966 28.8908 3.71556 28.9953C3.80763 29.0015 3.8997 29.0053 3.99053 29.0053C5.36666 29.0053 6.50389 28.2488 7.23302 27.5906C8.10647 26.8017 8.85923 25.7989 9.48508 24.5907C10.2764 25.0063 11.0292 25.4816 11.7073 25.9096C11.8578 26.0042 12.0047 26.0975 12.1478 26.1871C15.0319 27.9912 18.4025 29.5776 21.5318 27.6627C21.8789 27.45 22.073 27.1053 22.0631 26.7171C22.0519 26.2966 21.8018 25.8822 21.441 25.6857L21.4385 25.6881ZM14.4521 7.08437C13.8088 7.89934 13.1817 8.41943 12.5111 8.6857C12.5633 8.4356 12.6206 8.18427 12.6828 7.93418C12.8495 7.26478 13.0448 6.62773 13.2651 6.04046L13.2962 5.95834C13.5089 5.38599 13.7516 4.73774 14.1659 4.3259C14.3563 4.13678 14.5728 4.036 14.7756 4.036C14.8403 4.036 14.9025 4.04595 14.9635 4.0671C15.1899 4.14673 15.3405 4.36945 15.3753 4.67926C15.4848 5.63857 14.9411 6.46847 14.4533 7.08561L14.4521 7.08437ZM5.66154 25.9967C5.0133 26.5803 3.76906 27.18 3.00261 26.4422C2.755 26.2033 2.648 25.9121 2.68657 25.5774C2.75625 24.964 3.28629 24.3494 3.77279 24.0582C4.43472 23.6625 5.1315 23.4983 5.84071 23.4983C6.35832 23.4983 6.88214 23.5854 7.40472 23.7322C6.91076 24.643 6.33094 25.3945 5.66154 25.9967Z" stroke="white" mask="url(#path-1-outside-1_2117_34)"/>
</svg>
