<svg width="94" height="43" viewBox="0 0 94 43" fill="none" xmlns="http://www.w3.org/2000/svg">
    <path d="M2 16.575C2 16.575 8.74473 13.455 10.6971 11.8435C14.0538 9.07253 12.5329 5.56889 10.0793 6.80296C7.26219 8.21884 6.46122 11.6296 9.25537 20.0911C12.0495 28.5526 14.4368 32.2188 10.0769 33.437C8.66104 33.8325 7.49391 30.7943 10.2484 28.673C16.2841 24.0263 20.7797 26.4955 22.7346 22.4157M55.9397 2.15775C55.9397 2.15775 59.9709 17.0813 49.4776 17.2467C38.9951 16.7683 43.4686 1.97168 43.4686 1.97168M23.7491 10.966C22.9684 6.58858 24.7499 3.41963 29.162 2.68286C33.7337 1.96332 36.8291 6.91412 37.3873 11.3635C37.9372 15.7478 36.0877 18.6577 32.1365 19.4093C31.5309 19.5213 30.8923 19.5472 30.2853 19.4479C27.8973 19.12 25.6265 16.7469 25.0631 14.7953M62.8233 6.70723C62.8233 6.70723 63.7617 2.27329 69.1069 2.35304C75.2968 2.44539 77.0225 7.22506 75.8426 10.7067C74.0775 15.9126 65.2445 13.002 62.3999 11.287C62.3999 11.287 61.3027 16.1912 62.0849 19.4715M92.6622 7.62845C92.6622 7.62845 87.3623 9.86468 82.0901 8.33381C82.0901 8.33381 80.2379 17.9978 74.0625 24.049C74.0625 24.049 83.1812 27.9423 88.2693 34.2403M80.4623 15.8125C80.4623 15.8125 83.5738 20.1425 90.0228 19.6999" stroke="white" stroke-width="2.5" stroke-linecap="round" stroke-linejoin="round"/>
    <path d="M87.1694 38.8467C88.3755 40.053 87.4813 42.0283 85.7754 42.0283H12.1916C10.4857 42.0283 9.59148 40.053 10.7977 38.8467C20.5699 29.0733 34.0708 23.0283 48.9835 23.0283C63.8963 23.0283 77.3971 29.0733 87.1694 38.8467Z" fill="#4C0EFF"/>
    <path d="M87.1694 38.8467C88.3755 40.053 87.4813 42.0283 85.7754 42.0283H12.1916C10.4857 42.0283 9.59148 40.053 10.7977 38.8467C20.5699 29.0733 34.0708 23.0283 48.9835 23.0283C63.8963 23.0283 77.3971 29.0733 87.1694 38.8467Z" fill="url(#paint0_linear_1478_1012)"/>
    <defs>
        <linearGradient id="paint0_linear_1478_1012" x1="48.9835" y1="23.0283" x2="48.9835" y2="41.9555" gradientUnits="userSpaceOnUse">
            <stop stop-color="white" stop-opacity="0.1"/>
            <stop offset="1" stop-color="#EACFFF"/>
        </linearGradient>
    </defs>
</svg>
