<svg xmlns="http://www.w3.org/2000/svg" width="28" height="28" viewBox="0 0 28 28" fill="none">
  <mask id="mask0_434_582" style="mask-type:alpha" maskUnits="userSpaceOnUse" x="0" y="0" width="28" height="28">
    <rect width="28" height="28" fill="#D9D9D9"/>
  </mask>
  <g mask="url(#mask0_434_582)">
    <path d="M4.9585 20.5742C4.71058 20.5742 4.50277 20.4903 4.33506 20.3225C4.16735 20.1547 4.0835 19.9468 4.0835 19.6988C4.0835 19.4507 4.16735 19.243 4.33506 19.0755C4.50277 18.9079 4.71058 18.8242 4.9585 18.8242H23.0418C23.2897 18.8242 23.4975 18.9081 23.6652 19.0759C23.8329 19.2436 23.9168 19.4515 23.9168 19.6996C23.9168 19.9476 23.8329 20.1553 23.6652 20.3229C23.4975 20.4904 23.2897 20.5742 23.0418 20.5742H4.9585ZM4.9585 14.8754C4.71058 14.8754 4.50277 14.7915 4.33506 14.6238C4.16735 14.456 4.0835 14.2481 4.0835 14.0001C4.0835 13.752 4.16735 13.5443 4.33506 13.3768C4.50277 13.2092 4.71058 13.1255 4.9585 13.1255H23.0418C23.2897 13.1255 23.4975 13.2094 23.6652 13.3771C23.8329 13.5449 23.9168 13.7528 23.9168 14.0008C23.9168 14.2489 23.8329 14.4566 23.6652 14.6242C23.4975 14.7917 23.2897 14.8754 23.0418 14.8754H4.9585ZM4.9585 9.17673C4.71058 9.17673 4.50277 9.09284 4.33506 8.92505C4.16735 8.75728 4.0835 8.54938 4.0835 8.30135C4.0835 8.05333 4.16735 7.84557 4.33506 7.67806C4.50277 7.51052 4.71058 7.42676 4.9585 7.42676H23.0418C23.2897 7.42676 23.4975 7.51065 23.6652 7.67844C23.8329 7.84622 23.9168 8.05412 23.9168 8.30214C23.9168 8.55017 23.8329 8.75794 23.6652 8.92546C23.4975 9.09297 23.2897 9.17673 23.0418 9.17673H4.9585Z" fill="currentColor"/>
  </g>
</svg>