<svg xmlns="http://www.w3.org/2000/svg" width="28" height="28" viewBox="0 0 28 28" fill="none">
  <mask id="mask0_209_266" style="mask-type:alpha" maskUnits="userSpaceOnUse" x="0" y="0" width="28" height="28">
    <rect width="28" height="28" fill="#D9D9D9"/>
  </mask>
  <g mask="url(#mask0_209_266)">
    <path d="M14 15.2294L8.0814 21.148C7.91987 21.3096 7.71683 21.3922 7.47228 21.3959C7.22775 21.3997 7.02098 21.3171 6.85196 21.148C6.68293 20.979 6.59842 20.7741 6.59842 20.5333C6.59842 20.2925 6.68293 20.0876 6.85196 19.9186L12.7706 14L6.85196 8.08137C6.69042 7.91984 6.60778 7.7168 6.60405 7.47225C6.6003 7.22772 6.68293 7.02095 6.85196 6.85193C7.02098 6.6829 7.22588 6.59839 7.46668 6.59839C7.70748 6.59839 7.91239 6.6829 8.0814 6.85193L14 12.7705L19.9186 6.85193C20.0802 6.69039 20.2832 6.60775 20.5277 6.60402C20.7723 6.60026 20.9791 6.6829 21.1481 6.85193C21.3171 7.02095 21.4016 7.22585 21.4016 7.46665C21.4016 7.70745 21.3171 7.91236 21.1481 8.08137L15.2295 14L21.1481 19.9186C21.3096 20.0801 21.3922 20.2832 21.396 20.5277C21.3997 20.7723 21.3171 20.979 21.1481 21.148C20.9791 21.3171 20.7741 21.4016 20.5333 21.4016C20.2925 21.4016 20.0876 21.3171 19.9186 21.148L14 15.2294Z" fill="currentColor"/>
  </g>
</svg>