<svg width="24" height="25" viewBox="0 0 24 25" fill="none" xmlns="http://www.w3.org/2000/svg">
<g id="palette">
<mask id="mask0_1173_841" style="mask-type:alpha" maskUnits="userSpaceOnUse" x="0" y="0" width="24" height="25">
<rect id="Bounding box" y="0.5" width="24" height="24" fill="#D9D9D9"/>
</mask>
<g mask="url(#mask0_1173_841)">
<path id="palette_2" d="M11.9808 22C10.6846 22 9.46025 21.7503 8.30775 21.251C7.15508 20.7517 6.14867 20.0718 5.2885 19.2115C4.42817 18.3513 3.74833 17.3433 3.249 16.1875C2.74967 15.0317 2.5 13.8025 2.5 12.5C2.5 11.1808 2.75642 9.94333 3.26925 8.7875C3.78208 7.63167 4.47858 6.62625 5.35875 5.77125C6.23875 4.91608 7.26825 4.24042 8.44725 3.74425C9.62608 3.24808 10.8834 3 12.2192 3C13.4692 3 14.6538 3.21317 15.773 3.6395C16.8923 4.06583 17.8753 4.65592 18.722 5.40975C19.5688 6.16358 20.2435 7.05942 20.746 8.09725C21.2487 9.13492 21.5 10.2602 21.5 11.473C21.5 13.2038 20.9856 14.5577 19.9568 15.5345C18.9279 16.5115 17.609 17 16 17H14.1885C13.9038 17 13.6762 17.0929 13.5057 17.2788C13.3352 17.4648 13.25 17.6847 13.25 17.9385C13.25 18.2475 13.375 18.5687 13.625 18.902C13.875 19.2353 14 19.618 14 20.05C14 20.7102 13.8173 21.2003 13.452 21.5203C13.0865 21.8401 12.5961 22 11.9808 22ZM6.5 13.25C6.85633 13.25 7.15375 13.1307 7.39225 12.8923C7.63075 12.6538 7.75 12.3563 7.75 12C7.75 11.6437 7.63075 11.3462 7.39225 11.1077C7.15375 10.8692 6.85633 10.75 6.5 10.75C6.14367 10.75 5.84625 10.8692 5.60775 11.1077C5.36925 11.3462 5.25 11.6437 5.25 12C5.25 12.3563 5.36925 12.6538 5.60775 12.8923C5.84625 13.1307 6.14367 13.25 6.5 13.25ZM9.5 9.25C9.85633 9.25 10.1537 9.13075 10.3923 8.89225C10.6307 8.65375 10.75 8.35633 10.75 8C10.75 7.64367 10.6307 7.34625 10.3923 7.10775C10.1537 6.86925 9.85633 6.75 9.5 6.75C9.14367 6.75 8.84625 6.86925 8.60775 7.10775C8.36925 7.34625 8.25 7.64367 8.25 8C8.25 8.35633 8.36925 8.65375 8.60775 8.89225C8.84625 9.13075 9.14367 9.25 9.5 9.25ZM14.5 9.25C14.8563 9.25 15.1538 9.13075 15.3923 8.89225C15.6307 8.65375 15.75 8.35633 15.75 8C15.75 7.64367 15.6307 7.34625 15.3923 7.10775C15.1538 6.86925 14.8563 6.75 14.5 6.75C14.1437 6.75 13.8462 6.86925 13.6077 7.10775C13.3693 7.34625 13.25 7.64367 13.25 8C13.25 8.35633 13.3693 8.65375 13.6077 8.89225C13.8462 9.13075 14.1437 9.25 14.5 9.25ZM17.5 13.25C17.8563 13.25 18.1538 13.1307 18.3923 12.8923C18.6308 12.6538 18.75 12.3563 18.75 12C18.75 11.6437 18.6308 11.3462 18.3923 11.1077C18.1538 10.8692 17.8563 10.75 17.5 10.75C17.1437 10.75 16.8462 10.8692 16.6077 11.1077C16.3693 11.3462 16.25 11.6437 16.25 12C16.25 12.3563 16.3693 12.6538 16.6077 12.8923C16.8462 13.1307 17.1437 13.25 17.5 13.25ZM11.9808 20.5C12.1436 20.5 12.2708 20.4599 12.3625 20.3798C12.4542 20.2996 12.5 20.1897 12.5 20.05C12.5 19.8167 12.375 19.5545 12.125 19.2635C11.875 18.9725 11.75 18.5167 11.75 17.8962C11.75 17.1834 11.9917 16.6058 12.475 16.1635C12.9583 15.7212 13.55 15.5 14.25 15.5H16C17.177 15.5 18.1379 15.1552 18.8827 14.4655C19.6276 13.7757 20 12.7782 20 11.473C20 9.45 19.2243 7.78208 17.673 6.46925C16.1218 5.15642 14.3039 4.5 12.2192 4.5C9.93342 4.5 7.99208 5.275 6.39525 6.825C4.79842 8.375 4 10.2667 4 12.5C4 14.7167 4.77917 16.6042 6.3375 18.1625C7.89583 19.7208 9.77692 20.5 11.9808 20.5Z" fill="#181826"/>
</g>
</g>
</svg>
