<svg width="18" height="20" viewBox="0 0 18 20" fill="none" xmlns="http://www.w3.org/2000/svg">
<g clip-path="url(#clip0_14_36)">
<mask id="mask0_14_36" style="mask-type:luminance" maskUnits="userSpaceOnUse" x="0" y="0" width="17" height="20">
<path d="M16.1118 0.588135H0.764709V19.4117H16.1118V0.588135Z" fill="white"/>
</mask>
<g mask="url(#mask0_14_36)">
<path d="M10.2942 0.588135C10.2942 0.588135 4.39152 1.92077 3.58759 7.0413C3.10958 10.5105 8.72985 9.80797 8.72985 9.80797C8.72985 9.80797 6.8685 10.8799 4.26116 10.9161C1.66831 10.8509 0.76298 9.19959 0.76298 7.98283C0.76298 7.98283 0.668826 7.05578 1.719 5.56381C2.61709 4.23841 4.37704 2.62331 7.33926 1.41379C8.6212 0.906809 10.287 0.588135 10.287 0.588135H10.2942Z" fill="#302F4B"/>
<path d="M6.327 7.67139C6.327 7.67139 8.91986 6.43291 12.0849 6.44739C15.2427 6.46187 16.119 8.18561 16.119 9.46756C16.119 10.7495 15.4454 12.14 13.9824 13.6538C12.5194 15.1674 10.296 16.884 7.1237 18.1587C4.52359 19.2161 1.2934 19.4117 1.2934 19.4117C1.2934 19.4117 6.10973 17.9486 9.80346 14.11C13.49 10.2715 11.6503 8.64191 11.2085 8.23632C10.7667 7.83073 9.75276 7.07026 6.33425 7.67139H6.327Z" fill="#302F4B"/>
<path d="M13.665 4.42063C14.5938 3.8541 14.9467 2.73873 14.453 1.9294C13.9594 1.12006 12.8062 0.923234 11.8774 1.48977C10.9485 2.0563 10.5957 3.17166 11.0893 3.98099C11.583 4.79033 12.7361 4.98715 13.665 4.42063Z" fill="#302F4B"/>
</g>
</g>
<defs>
<clipPath id="clip0_14_36">
<rect width="16.4706" height="20" fill="white" transform="translate(0.764709)"/>
</clipPath>
</defs>
</svg>
