<svg xmlns="http://www.w3.org/2000/svg" width="18" height="13" viewBox="0 0 18 13" fill="none">
  <path fill-rule="evenodd" clip-rule="evenodd" d="M15.6879 0.849791C16.4287 1.05025 17.0074 1.62893 17.2078 2.36973C17.775 4.65293 17.644 8.25893 17.2188 10.6302C17.0184 11.371 16.4397 11.9497 15.6989 12.1502C14.3662 12.5136 9.00237 12.5136 9.00237 12.5136C9.00237 12.5136 3.63854 12.5136 2.30584 12.1502C1.56504 11.9497 0.986359 11.371 0.785902 10.6302C0.215375 8.35695 0.371775 4.74876 0.774888 2.38074C0.975345 1.63994 1.55403 1.06126 2.29482 0.860805C3.62752 0.497342 8.99135 0.486328 8.99135 0.486328C8.99135 0.486328 14.3552 0.486328 15.6879 0.849791ZM11.7338 6.49999L7.28417 9.07727V3.9227L11.7338 6.49999Z" fill="#59596F"/>
</svg>