<svg width="24" height="16" viewBox="0 0 24 16" fill="none" xmlns="http://www.w3.org/2000/svg">
<path fill-rule="evenodd" clip-rule="evenodd" d="M20.8969 0.483517C21.8823 0.750186 22.6522 1.52001 22.9188 2.50549C23.6734 5.54286 23.4991 10.3399 22.9335 13.4945C22.6668 14.48 21.897 15.2498 20.9115 15.5165C19.1386 16 12.0031 16 12.0031 16C12.0031 16 4.86755 16 3.09466 15.5165C2.10917 15.2498 1.33935 14.48 1.07268 13.4945C0.313706 10.4703 0.521765 5.67033 1.05803 2.52015C1.3247 1.53466 2.09452 0.764838 3.08001 0.498169C4.8529 0.014652 11.9884 0 11.9884 0C11.9884 0 19.124 0 20.8969 0.483517ZM15.6368 8L9.71736 11.4286V4.57143L15.6368 8Z" fill="#302F4B"/>
</svg>
